<?xml version="1.0" encoding="utf-8" standalone="no"?>
<!DOCTYPE svg PUBLIC "-//W3C//DTD SVG 1.1//EN"
  "http://www.w3.org/Graphics/SVG/1.1/DTD/svg11.dtd">
<svg xmlns:xlink="http://www.w3.org/1999/xlink" width="460.8pt" height="345.6pt" viewBox="0 0 460.8 345.6" xmlns="http://www.w3.org/2000/svg" version="1.1">
 <metadata>
  <rdf:RDF xmlns:dc="http://purl.org/dc/elements/1.1/" xmlns:cc="http://creativecommons.org/ns#" xmlns:rdf="http://www.w3.org/1999/02/22-rdf-syntax-ns#">
   <cc:Work>
    <dc:type rdf:resource="http://purl.org/dc/dcmitype/StillImage"/>
    <dc:date>2025-12-16T22:05:15.388324</dc:date>
    <dc:format>image/svg+xml</dc:format>
    <dc:creator>
     <cc:Agent>
      <dc:title>Matplotlib v3.10.8, https://matplotlib.org/</dc:title>
     </cc:Agent>
    </dc:creator>
   </cc:Work>
  </rdf:RDF>
 </metadata>
 <defs>
  <style type="text/css">*{stroke-linejoin: round; stroke-linecap: butt}</style>
 </defs>
 <g id="figure_1">
  <g id="patch_1">
   <path d="M 0 345.6 
L 460.8 345.6 
L 460.8 0 
L 0 0 
z
" style="fill: #ffffff"/>
  </g>
  <g id="axes_1">
   <g id="patch_2">
    <path d="M 57.6 307.584 
L 414.72 307.584 
L 414.72 41.472 
L 57.6 41.472 
z
" style="fill: #ffffff"/>
   </g>
   <g id="matplotlib.axis_1">
    <g id="xtick_1">
     <g id="line2d_1">
      <defs>
       <path id="m7919bd7936" d="M 0 0 
L 0 3.5 
" style="stroke: #000000; stroke-width: 0.8"/>
      </defs>
      <g>
       <use xlink:href="#m7919bd7936" x="73.832727" y="307.584" style="stroke: #000000; stroke-width: 0.8"/>
      </g>
     </g>
     <g id="text_1">
      <!-- 0 -->
      <g transform="translate(70.651477 322.182437) scale(0.1 -0.1)">
       <defs>
        <path id="DejaVuSans-30" d="M 2034 4250 
Q 1547 4250 1301 3770 
Q 1056 3291 1056 2328 
Q 1056 1369 1301 889 
Q 1547 409 2034 409 
Q 2525 409 2770 889 
Q 3016 1369 3016 2328 
Q 3016 3291 2770 3770 
Q 2525 4250 2034 4250 
z
M 2034 4750 
Q 2819 4750 3233 4129 
Q 3647 3509 3647 2328 
Q 3647 1150 3233 529 
Q 2819 -91 2034 -91 
Q 1250 -91 836 529 
Q 422 1150 422 2328 
Q 422 3509 836 4129 
Q 1250 4750 2034 4750 
z
" transform="scale(0.015625)"/>
       </defs>
       <use xlink:href="#DejaVuSans-30"/>
      </g>
     </g>
    </g>
    <g id="xtick_2">
     <g id="line2d_2">
      <g>
       <use xlink:href="#m7919bd7936" x="126.880856" y="307.584" style="stroke: #000000; stroke-width: 0.8"/>
      </g>
     </g>
     <g id="text_2">
      <!-- 50 -->
      <g transform="translate(120.518356 322.182437) scale(0.1 -0.1)">
       <defs>
        <path id="DejaVuSans-35" d="M 691 4666 
L 3169 4666 
L 3169 4134 
L 1269 4134 
L 1269 2991 
Q 1406 3038 1543 3061 
Q 1681 3084 1819 3084 
Q 2600 3084 3056 2656 
Q 3513 2228 3513 1497 
Q 3513 744 3044 326 
Q 2575 -91 1722 -91 
Q 1428 -91 1123 -41 
Q 819 9 494 109 
L 494 744 
Q 775 591 1075 516 
Q 1375 441 1709 441 
Q 2250 441 2565 725 
Q 2881 1009 2881 1497 
Q 2881 1984 2565 2268 
Q 2250 2553 1709 2553 
Q 1456 2553 1204 2497 
Q 953 2441 691 2322 
L 691 4666 
z
" transform="scale(0.015625)"/>
       </defs>
       <use xlink:href="#DejaVuSans-35"/>
       <use xlink:href="#DejaVuSans-30" transform="translate(63.623047 0)"/>
      </g>
     </g>
    </g>
    <g id="xtick_3">
     <g id="line2d_3">
      <g>
       <use xlink:href="#m7919bd7936" x="179.928984" y="307.584" style="stroke: #000000; stroke-width: 0.8"/>
      </g>
     </g>
     <g id="text_3">
      <!-- 100 -->
      <g transform="translate(170.385234 322.182437) scale(0.1 -0.1)">
       <defs>
        <path id="DejaVuSans-31" d="M 794 531 
L 1825 531 
L 1825 4091 
L 703 3866 
L 703 4441 
L 1819 4666 
L 2450 4666 
L 2450 531 
L 3481 531 
L 3481 0 
L 794 0 
L 794 531 
z
" transform="scale(0.015625)"/>
       </defs>
       <use xlink:href="#DejaVuSans-31"/>
       <use xlink:href="#DejaVuSans-30" transform="translate(63.623047 0)"/>
       <use xlink:href="#DejaVuSans-30" transform="translate(127.246094 0)"/>
      </g>
     </g>
    </g>
    <g id="xtick_4">
     <g id="line2d_4">
      <g>
       <use xlink:href="#m7919bd7936" x="232.977112" y="307.584" style="stroke: #000000; stroke-width: 0.8"/>
      </g>
     </g>
     <g id="text_4">
      <!-- 150 -->
      <g transform="translate(223.433362 322.182437) scale(0.1 -0.1)">
       <use xlink:href="#DejaVuSans-31"/>
       <use xlink:href="#DejaVuSans-35" transform="translate(63.623047 0)"/>
       <use xlink:href="#DejaVuSans-30" transform="translate(127.246094 0)"/>
      </g>
     </g>
    </g>
    <g id="xtick_5">
     <g id="line2d_5">
      <g>
       <use xlink:href="#m7919bd7936" x="286.025241" y="307.584" style="stroke: #000000; stroke-width: 0.8"/>
      </g>
     </g>
     <g id="text_5">
      <!-- 200 -->
      <g transform="translate(276.481491 322.182437) scale(0.1 -0.1)">
       <defs>
        <path id="DejaVuSans-32" d="M 1228 531 
L 3431 531 
L 3431 0 
L 469 0 
L 469 531 
Q 828 903 1448 1529 
Q 2069 2156 2228 2338 
Q 2531 2678 2651 2914 
Q 2772 3150 2772 3378 
Q 2772 3750 2511 3984 
Q 2250 4219 1831 4219 
Q 1534 4219 1204 4116 
Q 875 4013 500 3803 
L 500 4441 
Q 881 4594 1212 4672 
Q 1544 4750 1819 4750 
Q 2544 4750 2975 4387 
Q 3406 4025 3406 3419 
Q 3406 3131 3298 2873 
Q 3191 2616 2906 2266 
Q 2828 2175 2409 1742 
Q 1991 1309 1228 531 
z
" transform="scale(0.015625)"/>
       </defs>
       <use xlink:href="#DejaVuSans-32"/>
       <use xlink:href="#DejaVuSans-30" transform="translate(63.623047 0)"/>
       <use xlink:href="#DejaVuSans-30" transform="translate(127.246094 0)"/>
      </g>
     </g>
    </g>
    <g id="xtick_6">
     <g id="line2d_6">
      <g>
       <use xlink:href="#m7919bd7936" x="339.073369" y="307.584" style="stroke: #000000; stroke-width: 0.8"/>
      </g>
     </g>
     <g id="text_6">
      <!-- 250 -->
      <g transform="translate(329.529619 322.182437) scale(0.1 -0.1)">
       <use xlink:href="#DejaVuSans-32"/>
       <use xlink:href="#DejaVuSans-35" transform="translate(63.623047 0)"/>
       <use xlink:href="#DejaVuSans-30" transform="translate(127.246094 0)"/>
      </g>
     </g>
    </g>
    <g id="xtick_7">
     <g id="line2d_7">
      <g>
       <use xlink:href="#m7919bd7936" x="392.121497" y="307.584" style="stroke: #000000; stroke-width: 0.8"/>
      </g>
     </g>
     <g id="text_7">
      <!-- 300 -->
      <g transform="translate(382.577747 322.182437) scale(0.1 -0.1)">
       <defs>
        <path id="DejaVuSans-33" d="M 2597 2516 
Q 3050 2419 3304 2112 
Q 3559 1806 3559 1356 
Q 3559 666 3084 287 
Q 2609 -91 1734 -91 
Q 1441 -91 1130 -33 
Q 819 25 488 141 
L 488 750 
Q 750 597 1062 519 
Q 1375 441 1716 441 
Q 2309 441 2620 675 
Q 2931 909 2931 1356 
Q 2931 1769 2642 2001 
Q 2353 2234 1838 2234 
L 1294 2234 
L 1294 2753 
L 1863 2753 
Q 2328 2753 2575 2939 
Q 2822 3125 2822 3475 
Q 2822 3834 2567 4026 
Q 2313 4219 1838 4219 
Q 1578 4219 1281 4162 
Q 984 4106 628 3988 
L 628 4550 
Q 988 4650 1302 4700 
Q 1616 4750 1894 4750 
Q 2613 4750 3031 4423 
Q 3450 4097 3450 3541 
Q 3450 3153 3228 2886 
Q 3006 2619 2597 2516 
z
" transform="scale(0.015625)"/>
       </defs>
       <use xlink:href="#DejaVuSans-33"/>
       <use xlink:href="#DejaVuSans-30" transform="translate(63.623047 0)"/>
       <use xlink:href="#DejaVuSans-30" transform="translate(127.246094 0)"/>
      </g>
     </g>
    </g>
    <g id="text_8">
     <!-- Frames -->
     <g transform="translate(217.975625 335.860562) scale(0.1 -0.1)">
      <defs>
       <path id="DejaVuSans-46" d="M 628 4666 
L 3309 4666 
L 3309 4134 
L 1259 4134 
L 1259 2759 
L 3109 2759 
L 3109 2228 
L 1259 2228 
L 1259 0 
L 628 0 
L 628 4666 
z
" transform="scale(0.015625)"/>
       <path id="DejaVuSans-72" d="M 2631 2963 
Q 2534 3019 2420 3045 
Q 2306 3072 2169 3072 
Q 1681 3072 1420 2755 
Q 1159 2438 1159 1844 
L 1159 0 
L 581 0 
L 581 3500 
L 1159 3500 
L 1159 2956 
Q 1341 3275 1631 3429 
Q 1922 3584 2338 3584 
Q 2397 3584 2469 3576 
Q 2541 3569 2628 3553 
L 2631 2963 
z
" transform="scale(0.015625)"/>
       <path id="DejaVuSans-61" d="M 2194 1759 
Q 1497 1759 1228 1600 
Q 959 1441 959 1056 
Q 959 750 1161 570 
Q 1363 391 1709 391 
Q 2188 391 2477 730 
Q 2766 1069 2766 1631 
L 2766 1759 
L 2194 1759 
z
M 3341 1997 
L 3341 0 
L 2766 0 
L 2766 531 
Q 2569 213 2275 61 
Q 1981 -91 1556 -91 
Q 1019 -91 701 211 
Q 384 513 384 1019 
Q 384 1609 779 1909 
Q 1175 2209 1959 2209 
L 2766 2209 
L 2766 2266 
Q 2766 2663 2505 2880 
Q 2244 3097 1772 3097 
Q 1472 3097 1187 3025 
Q 903 2953 641 2809 
L 641 3341 
Q 956 3463 1253 3523 
Q 1550 3584 1831 3584 
Q 2591 3584 2966 3190 
Q 3341 2797 3341 1997 
z
" transform="scale(0.015625)"/>
       <path id="DejaVuSans-6d" d="M 3328 2828 
Q 3544 3216 3844 3400 
Q 4144 3584 4550 3584 
Q 5097 3584 5394 3201 
Q 5691 2819 5691 2113 
L 5691 0 
L 5113 0 
L 5113 2094 
Q 5113 2597 4934 2840 
Q 4756 3084 4391 3084 
Q 3944 3084 3684 2787 
Q 3425 2491 3425 1978 
L 3425 0 
L 2847 0 
L 2847 2094 
Q 2847 2600 2669 2842 
Q 2491 3084 2119 3084 
Q 1678 3084 1418 2786 
Q 1159 2488 1159 1978 
L 1159 0 
L 581 0 
L 581 3500 
L 1159 3500 
L 1159 2956 
Q 1356 3278 1631 3431 
Q 1906 3584 2284 3584 
Q 2666 3584 2933 3390 
Q 3200 3197 3328 2828 
z
" transform="scale(0.015625)"/>
       <path id="DejaVuSans-65" d="M 3597 1894 
L 3597 1613 
L 953 1613 
Q 991 1019 1311 708 
Q 1631 397 2203 397 
Q 2534 397 2845 478 
Q 3156 559 3463 722 
L 3463 178 
Q 3153 47 2828 -22 
Q 2503 -91 2169 -91 
Q 1331 -91 842 396 
Q 353 884 353 1716 
Q 353 2575 817 3079 
Q 1281 3584 2069 3584 
Q 2775 3584 3186 3129 
Q 3597 2675 3597 1894 
z
M 3022 2063 
Q 3016 2534 2758 2815 
Q 2500 3097 2075 3097 
Q 1594 3097 1305 2825 
Q 1016 2553 972 2059 
L 3022 2063 
z
" transform="scale(0.015625)"/>
       <path id="DejaVuSans-73" d="M 2834 3397 
L 2834 2853 
Q 2591 2978 2328 3040 
Q 2066 3103 1784 3103 
Q 1356 3103 1142 2972 
Q 928 2841 928 2578 
Q 928 2378 1081 2264 
Q 1234 2150 1697 2047 
L 1894 2003 
Q 2506 1872 2764 1633 
Q 3022 1394 3022 966 
Q 3022 478 2636 193 
Q 2250 -91 1575 -91 
Q 1294 -91 989 -36 
Q 684 19 347 128 
L 347 722 
Q 666 556 975 473 
Q 1284 391 1588 391 
Q 1994 391 2212 530 
Q 2431 669 2431 922 
Q 2431 1156 2273 1281 
Q 2116 1406 1581 1522 
L 1381 1569 
Q 847 1681 609 1914 
Q 372 2147 372 2553 
Q 372 3047 722 3315 
Q 1072 3584 1716 3584 
Q 2034 3584 2315 3537 
Q 2597 3491 2834 3397 
z
" transform="scale(0.015625)"/>
      </defs>
      <use xlink:href="#DejaVuSans-46"/>
      <use xlink:href="#DejaVuSans-72" transform="translate(50.269531 0)"/>
      <use xlink:href="#DejaVuSans-61" transform="translate(91.382812 0)"/>
      <use xlink:href="#DejaVuSans-6d" transform="translate(152.662109 0)"/>
      <use xlink:href="#DejaVuSans-65" transform="translate(250.074219 0)"/>
      <use xlink:href="#DejaVuSans-73" transform="translate(311.597656 0)"/>
     </g>
    </g>
   </g>
   <g id="matplotlib.axis_2">
    <g id="ytick_1">
     <g id="line2d_8">
      <defs>
       <path id="m399fe792a9" d="M 0 0 
L -3.5 0 
" style="stroke: #000000; stroke-width: 0.8"/>
      </defs>
      <g>
       <use xlink:href="#m399fe792a9" x="57.6" y="292.032984" style="stroke: #000000; stroke-width: 0.8"/>
      </g>
     </g>
     <g id="text_9">
      <!-- 100 -->
      <g transform="translate(31.5125 295.832203) scale(0.1 -0.1)">
       <use xlink:href="#DejaVuSans-31"/>
       <use xlink:href="#DejaVuSans-30" transform="translate(63.623047 0)"/>
       <use xlink:href="#DejaVuSans-30" transform="translate(127.246094 0)"/>
      </g>
     </g>
    </g>
    <g id="ytick_2">
     <g id="line2d_9">
      <g>
       <use xlink:href="#m399fe792a9" x="57.6" y="256.452094" style="stroke: #000000; stroke-width: 0.8"/>
      </g>
     </g>
     <g id="text_10">
      <!-- 110 -->
      <g transform="translate(31.5125 260.251313) scale(0.1 -0.1)">
       <use xlink:href="#DejaVuSans-31"/>
       <use xlink:href="#DejaVuSans-31" transform="translate(63.623047 0)"/>
       <use xlink:href="#DejaVuSans-30" transform="translate(127.246094 0)"/>
      </g>
     </g>
    </g>
    <g id="ytick_3">
     <g id="line2d_10">
      <g>
       <use xlink:href="#m399fe792a9" x="57.6" y="220.871204" style="stroke: #000000; stroke-width: 0.8"/>
      </g>
     </g>
     <g id="text_11">
      <!-- 120 -->
      <g transform="translate(31.5125 224.670423) scale(0.1 -0.1)">
       <use xlink:href="#DejaVuSans-31"/>
       <use xlink:href="#DejaVuSans-32" transform="translate(63.623047 0)"/>
       <use xlink:href="#DejaVuSans-30" transform="translate(127.246094 0)"/>
      </g>
     </g>
    </g>
    <g id="ytick_4">
     <g id="line2d_11">
      <g>
       <use xlink:href="#m399fe792a9" x="57.6" y="185.290314" style="stroke: #000000; stroke-width: 0.8"/>
      </g>
     </g>
     <g id="text_12">
      <!-- 130 -->
      <g transform="translate(31.5125 189.089533) scale(0.1 -0.1)">
       <use xlink:href="#DejaVuSans-31"/>
       <use xlink:href="#DejaVuSans-33" transform="translate(63.623047 0)"/>
       <use xlink:href="#DejaVuSans-30" transform="translate(127.246094 0)"/>
      </g>
     </g>
    </g>
    <g id="ytick_5">
     <g id="line2d_12">
      <g>
       <use xlink:href="#m399fe792a9" x="57.6" y="149.709424" style="stroke: #000000; stroke-width: 0.8"/>
      </g>
     </g>
     <g id="text_13">
      <!-- 140 -->
      <g transform="translate(31.5125 153.508643) scale(0.1 -0.1)">
       <defs>
        <path id="DejaVuSans-34" d="M 2419 4116 
L 825 1625 
L 2419 1625 
L 2419 4116 
z
M 2253 4666 
L 3047 4666 
L 3047 1625 
L 3713 1625 
L 3713 1100 
L 3047 1100 
L 3047 0 
L 2419 0 
L 2419 1100 
L 313 1100 
L 313 1709 
L 2253 4666 
z
" transform="scale(0.015625)"/>
       </defs>
       <use xlink:href="#DejaVuSans-31"/>
       <use xlink:href="#DejaVuSans-34" transform="translate(63.623047 0)"/>
       <use xlink:href="#DejaVuSans-30" transform="translate(127.246094 0)"/>
      </g>
     </g>
    </g>
    <g id="ytick_6">
     <g id="line2d_13">
      <g>
       <use xlink:href="#m399fe792a9" x="57.6" y="114.128534" style="stroke: #000000; stroke-width: 0.8"/>
      </g>
     </g>
     <g id="text_14">
      <!-- 150 -->
      <g transform="translate(31.5125 117.927753) scale(0.1 -0.1)">
       <use xlink:href="#DejaVuSans-31"/>
       <use xlink:href="#DejaVuSans-35" transform="translate(63.623047 0)"/>
       <use xlink:href="#DejaVuSans-30" transform="translate(127.246094 0)"/>
      </g>
     </g>
    </g>
    <g id="ytick_7">
     <g id="line2d_14">
      <g>
       <use xlink:href="#m399fe792a9" x="57.6" y="78.547644" style="stroke: #000000; stroke-width: 0.8"/>
      </g>
     </g>
     <g id="text_15">
      <!-- 160 -->
      <g transform="translate(31.5125 82.346863) scale(0.1 -0.1)">
       <defs>
        <path id="DejaVuSans-36" d="M 2113 2584 
Q 1688 2584 1439 2293 
Q 1191 2003 1191 1497 
Q 1191 994 1439 701 
Q 1688 409 2113 409 
Q 2538 409 2786 701 
Q 3034 994 3034 1497 
Q 3034 2003 2786 2293 
Q 2538 2584 2113 2584 
z
M 3366 4563 
L 3366 3988 
Q 3128 4100 2886 4159 
Q 2644 4219 2406 4219 
Q 1781 4219 1451 3797 
Q 1122 3375 1075 2522 
Q 1259 2794 1537 2939 
Q 1816 3084 2150 3084 
Q 2853 3084 3261 2657 
Q 3669 2231 3669 1497 
Q 3669 778 3244 343 
Q 2819 -91 2113 -91 
Q 1303 -91 875 529 
Q 447 1150 447 2328 
Q 447 3434 972 4092 
Q 1497 4750 2381 4750 
Q 2619 4750 2861 4703 
Q 3103 4656 3366 4563 
z
" transform="scale(0.015625)"/>
       </defs>
       <use xlink:href="#DejaVuSans-31"/>
       <use xlink:href="#DejaVuSans-36" transform="translate(63.623047 0)"/>
       <use xlink:href="#DejaVuSans-30" transform="translate(127.246094 0)"/>
      </g>
     </g>
    </g>
    <g id="ytick_8">
     <g id="line2d_15">
      <g>
       <use xlink:href="#m399fe792a9" x="57.6" y="42.966754" style="stroke: #000000; stroke-width: 0.8"/>
      </g>
     </g>
     <g id="text_16">
      <!-- 170 -->
      <g transform="translate(31.5125 46.765973) scale(0.1 -0.1)">
       <defs>
        <path id="DejaVuSans-37" d="M 525 4666 
L 3525 4666 
L 3525 4397 
L 1831 0 
L 1172 0 
L 2766 4134 
L 525 4134 
L 525 4666 
z
" transform="scale(0.015625)"/>
       </defs>
       <use xlink:href="#DejaVuSans-31"/>
       <use xlink:href="#DejaVuSans-37" transform="translate(63.623047 0)"/>
       <use xlink:href="#DejaVuSans-30" transform="translate(127.246094 0)"/>
      </g>
     </g>
    </g>
    <g id="text_17">
     <!-- Radius of Gyration (pixels) -->
     <g transform="translate(25.432812 240.745969) rotate(-90) scale(0.1 -0.1)">
      <defs>
       <path id="DejaVuSans-52" d="M 2841 2188 
Q 3044 2119 3236 1894 
Q 3428 1669 3622 1275 
L 4263 0 
L 3584 0 
L 2988 1197 
Q 2756 1666 2539 1819 
Q 2322 1972 1947 1972 
L 1259 1972 
L 1259 0 
L 628 0 
L 628 4666 
L 2053 4666 
Q 2853 4666 3247 4331 
Q 3641 3997 3641 3322 
Q 3641 2881 3436 2590 
Q 3231 2300 2841 2188 
z
M 1259 4147 
L 1259 2491 
L 2053 2491 
Q 2509 2491 2742 2702 
Q 2975 2913 2975 3322 
Q 2975 3731 2742 3939 
Q 2509 4147 2053 4147 
L 1259 4147 
z
" transform="scale(0.015625)"/>
       <path id="DejaVuSans-64" d="M 2906 2969 
L 2906 4863 
L 3481 4863 
L 3481 0 
L 2906 0 
L 2906 525 
Q 2725 213 2448 61 
Q 2172 -91 1784 -91 
Q 1150 -91 751 415 
Q 353 922 353 1747 
Q 353 2572 751 3078 
Q 1150 3584 1784 3584 
Q 2172 3584 2448 3432 
Q 2725 3281 2906 2969 
z
M 947 1747 
Q 947 1113 1208 752 
Q 1469 391 1925 391 
Q 2381 391 2643 752 
Q 2906 1113 2906 1747 
Q 2906 2381 2643 2742 
Q 2381 3103 1925 3103 
Q 1469 3103 1208 2742 
Q 947 2381 947 1747 
z
" transform="scale(0.015625)"/>
       <path id="DejaVuSans-69" d="M 603 3500 
L 1178 3500 
L 1178 0 
L 603 0 
L 603 3500 
z
M 603 4863 
L 1178 4863 
L 1178 4134 
L 603 4134 
L 603 4863 
z
" transform="scale(0.015625)"/>
       <path id="DejaVuSans-75" d="M 544 1381 
L 544 3500 
L 1119 3500 
L 1119 1403 
Q 1119 906 1312 657 
Q 1506 409 1894 409 
Q 2359 409 2629 706 
Q 2900 1003 2900 1516 
L 2900 3500 
L 3475 3500 
L 3475 0 
L 2900 0 
L 2900 538 
Q 2691 219 2414 64 
Q 2138 -91 1772 -91 
Q 1169 -91 856 284 
Q 544 659 544 1381 
z
M 1991 3584 
L 1991 3584 
z
" transform="scale(0.015625)"/>
       <path id="DejaVuSans-20" transform="scale(0.015625)"/>
       <path id="DejaVuSans-6f" d="M 1959 3097 
Q 1497 3097 1228 2736 
Q 959 2375 959 1747 
Q 959 1119 1226 758 
Q 1494 397 1959 397 
Q 2419 397 2687 759 
Q 2956 1122 2956 1747 
Q 2956 2369 2687 2733 
Q 2419 3097 1959 3097 
z
M 1959 3584 
Q 2709 3584 3137 3096 
Q 3566 2609 3566 1747 
Q 3566 888 3137 398 
Q 2709 -91 1959 -91 
Q 1206 -91 779 398 
Q 353 888 353 1747 
Q 353 2609 779 3096 
Q 1206 3584 1959 3584 
z
" transform="scale(0.015625)"/>
       <path id="DejaVuSans-66" d="M 2375 4863 
L 2375 4384 
L 1825 4384 
Q 1516 4384 1395 4259 
Q 1275 4134 1275 3809 
L 1275 3500 
L 2222 3500 
L 2222 3053 
L 1275 3053 
L 1275 0 
L 697 0 
L 697 3053 
L 147 3053 
L 147 3500 
L 697 3500 
L 697 3744 
Q 697 4328 969 4595 
Q 1241 4863 1831 4863 
L 2375 4863 
z
" transform="scale(0.015625)"/>
       <path id="DejaVuSans-47" d="M 3809 666 
L 3809 1919 
L 2778 1919 
L 2778 2438 
L 4434 2438 
L 4434 434 
Q 4069 175 3628 42 
Q 3188 -91 2688 -91 
Q 1594 -91 976 548 
Q 359 1188 359 2328 
Q 359 3472 976 4111 
Q 1594 4750 2688 4750 
Q 3144 4750 3555 4637 
Q 3966 4525 4313 4306 
L 4313 3634 
Q 3963 3931 3569 4081 
Q 3175 4231 2741 4231 
Q 1884 4231 1454 3753 
Q 1025 3275 1025 2328 
Q 1025 1384 1454 906 
Q 1884 428 2741 428 
Q 3075 428 3337 486 
Q 3600 544 3809 666 
z
" transform="scale(0.015625)"/>
       <path id="DejaVuSans-79" d="M 2059 -325 
Q 1816 -950 1584 -1140 
Q 1353 -1331 966 -1331 
L 506 -1331 
L 506 -850 
L 844 -850 
Q 1081 -850 1212 -737 
Q 1344 -625 1503 -206 
L 1606 56 
L 191 3500 
L 800 3500 
L 1894 763 
L 2988 3500 
L 3597 3500 
L 2059 -325 
z
" transform="scale(0.015625)"/>
       <path id="DejaVuSans-74" d="M 1172 4494 
L 1172 3500 
L 2356 3500 
L 2356 3053 
L 1172 3053 
L 1172 1153 
Q 1172 725 1289 603 
Q 1406 481 1766 481 
L 2356 481 
L 2356 0 
L 1766 0 
Q 1100 0 847 248 
Q 594 497 594 1153 
L 594 3053 
L 172 3053 
L 172 3500 
L 594 3500 
L 594 4494 
L 1172 4494 
z
" transform="scale(0.015625)"/>
       <path id="DejaVuSans-6e" d="M 3513 2113 
L 3513 0 
L 2938 0 
L 2938 2094 
Q 2938 2591 2744 2837 
Q 2550 3084 2163 3084 
Q 1697 3084 1428 2787 
Q 1159 2491 1159 1978 
L 1159 0 
L 581 0 
L 581 3500 
L 1159 3500 
L 1159 2956 
Q 1366 3272 1645 3428 
Q 1925 3584 2291 3584 
Q 2894 3584 3203 3211 
Q 3513 2838 3513 2113 
z
" transform="scale(0.015625)"/>
       <path id="DejaVuSans-28" d="M 1984 4856 
Q 1566 4138 1362 3434 
Q 1159 2731 1159 2009 
Q 1159 1288 1364 580 
Q 1569 -128 1984 -844 
L 1484 -844 
Q 1016 -109 783 600 
Q 550 1309 550 2009 
Q 550 2706 781 3412 
Q 1013 4119 1484 4856 
L 1984 4856 
z
" transform="scale(0.015625)"/>
       <path id="DejaVuSans-70" d="M 1159 525 
L 1159 -1331 
L 581 -1331 
L 581 3500 
L 1159 3500 
L 1159 2969 
Q 1341 3281 1617 3432 
Q 1894 3584 2278 3584 
Q 2916 3584 3314 3078 
Q 3713 2572 3713 1747 
Q 3713 922 3314 415 
Q 2916 -91 2278 -91 
Q 1894 -91 1617 61 
Q 1341 213 1159 525 
z
M 3116 1747 
Q 3116 2381 2855 2742 
Q 2594 3103 2138 3103 
Q 1681 3103 1420 2742 
Q 1159 2381 1159 1747 
Q 1159 1113 1420 752 
Q 1681 391 2138 391 
Q 2594 391 2855 752 
Q 3116 1113 3116 1747 
z
" transform="scale(0.015625)"/>
       <path id="DejaVuSans-78" d="M 3513 3500 
L 2247 1797 
L 3578 0 
L 2900 0 
L 1881 1375 
L 863 0 
L 184 0 
L 1544 1831 
L 300 3500 
L 978 3500 
L 1906 2253 
L 2834 3500 
L 3513 3500 
z
" transform="scale(0.015625)"/>
       <path id="DejaVuSans-6c" d="M 603 4863 
L 1178 4863 
L 1178 0 
L 603 0 
L 603 4863 
z
" transform="scale(0.015625)"/>
       <path id="DejaVuSans-29" d="M 513 4856 
L 1013 4856 
Q 1481 4119 1714 3412 
Q 1947 2706 1947 2009 
Q 1947 1309 1714 600 
Q 1481 -109 1013 -844 
L 513 -844 
Q 928 -128 1133 580 
Q 1338 1288 1338 2009 
Q 1338 2731 1133 3434 
Q 928 4138 513 4856 
z
" transform="scale(0.015625)"/>
      </defs>
      <use xlink:href="#DejaVuSans-52"/>
      <use xlink:href="#DejaVuSans-61" transform="translate(67.232422 0)"/>
      <use xlink:href="#DejaVuSans-64" transform="translate(128.511719 0)"/>
      <use xlink:href="#DejaVuSans-69" transform="translate(191.988281 0)"/>
      <use xlink:href="#DejaVuSans-75" transform="translate(219.771484 0)"/>
      <use xlink:href="#DejaVuSans-73" transform="translate(283.150391 0)"/>
      <use xlink:href="#DejaVuSans-20" transform="translate(335.25 0)"/>
      <use xlink:href="#DejaVuSans-6f" transform="translate(367.037109 0)"/>
      <use xlink:href="#DejaVuSans-66" transform="translate(428.21875 0)"/>
      <use xlink:href="#DejaVuSans-20" transform="translate(463.423828 0)"/>
      <use xlink:href="#DejaVuSans-47" transform="translate(495.210938 0)"/>
      <use xlink:href="#DejaVuSans-79" transform="translate(572.701172 0)"/>
      <use xlink:href="#DejaVuSans-72" transform="translate(631.880859 0)"/>
      <use xlink:href="#DejaVuSans-61" transform="translate(672.994141 0)"/>
      <use xlink:href="#DejaVuSans-74" transform="translate(734.273438 0)"/>
      <use xlink:href="#DejaVuSans-69" transform="translate(773.482422 0)"/>
      <use xlink:href="#DejaVuSans-6f" transform="translate(801.265625 0)"/>
      <use xlink:href="#DejaVuSans-6e" transform="translate(862.447266 0)"/>
      <use xlink:href="#DejaVuSans-20" transform="translate(925.826172 0)"/>
      <use xlink:href="#DejaVuSans-28" transform="translate(957.613281 0)"/>
      <use xlink:href="#DejaVuSans-70" transform="translate(996.626953 0)"/>
      <use xlink:href="#DejaVuSans-69" transform="translate(1060.103516 0)"/>
      <use xlink:href="#DejaVuSans-78" transform="translate(1087.886719 0)"/>
      <use xlink:href="#DejaVuSans-65" transform="translate(1143.941406 0)"/>
      <use xlink:href="#DejaVuSans-6c" transform="translate(1205.464844 0)"/>
      <use xlink:href="#DejaVuSans-73" transform="translate(1233.248047 0)"/>
      <use xlink:href="#DejaVuSans-29" transform="translate(1285.347656 0)"/>
     </g>
    </g>
   </g>
   <g id="line2d_16">
    <path d="M 73.832727 230.713268 
L 74.89369 211.885973 
L 75.954652 169.129846 
L 77.015615 194.332435 
L 78.076578 128.345648 
L 79.13754 190.456707 
L 80.198503 110.602958 
L 81.259465 196.678617 
L 82.320428 179.395053 
L 83.38139 192.764087 
L 84.442353 162.959192 
L 85.503316 197.647637 
L 86.564278 194.265287 
L 87.625241 183.544272 
L 88.686203 191.645315 
L 89.747166 183.499898 
L 90.808128 172.813665 
L 91.869091 167.623046 
L 92.930053 134.613401 
L 93.991016 137.726573 
L 95.051979 143.989521 
L 96.112941 119.929151 
L 97.173904 120.391389 
L 98.234866 164.673975 
L 99.295829 151.291226 
L 100.356791 165.257555 
L 101.417754 191.46424 
L 102.478717 147.810342 
L 103.539679 153.752212 
L 104.600642 160.515341 
L 105.661604 178.069359 
L 106.722567 185.36118 
L 107.783529 182.43135 
L 108.844492 169.305065 
L 109.905455 146.059428 
L 110.966417 183.911097 
L 112.02738 154.006371 
L 113.088342 141.248169 
L 114.149305 181.560444 
L 115.210267 143.136657 
L 116.27123 155.14135 
L 117.332193 129.019373 
L 118.393155 163.12574 
L 119.454118 175.345377 
L 120.51508 162.779207 
L 121.576043 135.325574 
L 122.637005 167.508464 
L 123.697968 129.26387 
L 124.75893 160.409561 
L 125.819893 172.724258 
L 126.880856 137.416472 
L 127.941818 166.105744 
L 129.002781 157.488927 
L 130.063743 151.371938 
L 131.124706 117.934729 
L 132.185668 158.253545 
L 133.246631 168.496318 
L 134.307594 154.311911 
L 135.368556 154.808173 
L 136.429519 160.960384 
L 137.490481 159.598832 
L 138.551444 170.095894 
L 139.612406 132.244094 
L 140.673369 171.547095 
L 141.734332 168.361488 
L 142.795294 170.717545 
L 143.856257 131.594611 
L 144.917219 144.809935 
L 145.978182 138.966539 
L 147.039144 156.37221 
L 148.100107 140.738563 
L 149.16107 149.178719 
L 150.222032 159.057989 
L 151.282995 141.922708 
L 152.343957 150.023658 
L 153.40492 154.459779 
L 154.465882 141.616974 
L 155.526845 169.195136 
L 156.587807 162.214704 
L 157.64877 165.493697 
L 158.709733 144.621754 
L 159.770695 153.939963 
L 160.831658 144.071985 
L 161.89262 154.777788 
L 162.953583 162.071374 
L 164.014545 113.648619 
L 165.075508 128.300963 
L 166.136471 175.427424 
L 167.197433 168.287844 
L 168.258396 201.403194 
L 169.319358 180.468537 
L 170.380321 181.465049 
L 171.441283 191.434264 
L 172.502246 187.369417 
L 173.563209 172.82213 
L 174.624171 167.823769 
L 175.685134 182.606923 
L 176.746096 148.780903 
L 177.807059 179.387615 
L 178.868021 158.552857 
L 179.928984 152.490315 
L 180.989947 170.820642 
L 182.050909 151.35314 
L 183.111872 144.115522 
L 184.172834 182.293399 
L 185.233797 200.412185 
L 186.294759 166.004856 
L 187.355722 212.212811 
L 188.416684 171.957189 
L 189.477647 186.310693 
L 190.53861 171.069978 
L 191.599572 171.113495 
L 192.660535 174.842387 
L 193.721497 176.498386 
L 194.78246 187.119392 
L 195.843422 179.542788 
L 196.904385 189.448048 
L 199.02631 205.375259 
L 200.087273 190.905305 
L 201.148235 134.175823 
L 202.209198 161.098542 
L 203.27016 171.011199 
L 204.331123 167.425721 
L 205.392086 173.877033 
L 206.453048 184.021147 
L 207.514011 178.032427 
L 208.574973 191.395158 
L 209.635936 186.995245 
L 210.696898 197.79197 
L 211.757861 218.285057 
L 212.818824 184.751623 
L 213.879786 177.084849 
L 214.940749 173.019455 
L 216.001711 204.357154 
L 217.062674 178.669811 
L 218.123636 175.458483 
L 219.184599 216.678576 
L 220.245561 172.169124 
L 221.306524 206.217849 
L 222.367487 227.026331 
L 223.428449 138.762562 
L 224.489412 153.26524 
L 225.550374 157.889714 
L 226.611337 177.226281 
L 227.672299 174.753664 
L 228.733262 159.458078 
L 229.794225 160.516778 
L 230.855187 163.547567 
L 231.91615 102.031532 
L 232.977112 151.051103 
L 234.038075 162.844289 
L 235.099037 138.248664 
L 236.16 138.449327 
L 237.220963 173.79076 
L 238.281925 155.316621 
L 239.342888 182.275249 
L 240.40385 53.568 
L 241.464813 103.755662 
L 242.525775 161.533146 
L 243.586738 157.760849 
L 244.647701 181.793143 
L 245.708663 143.667368 
L 246.769626 120.214012 
L 247.830588 152.282366 
L 248.891551 140.426533 
L 249.952513 201.174887 
L 251.013476 175.875352 
L 252.074439 184.638083 
L 253.135401 181.679428 
L 254.196364 181.146064 
L 255.257326 167.110254 
L 256.318289 156.839896 
L 257.379251 175.199026 
L 258.440214 169.898812 
L 259.501176 167.087521 
L 260.562139 177.312115 
L 261.623102 175.498198 
L 263.745027 200.322838 
L 264.805989 201.579133 
L 265.866952 203.191639 
L 266.927914 210.752428 
L 267.988877 137.05829 
L 269.04984 212.374888 
L 270.110802 274.481988 
L 271.171765 214.459982 
L 272.232727 143.022167 
L 273.29369 199.034589 
L 275.415615 170.450943 
L 276.476578 118.811246 
L 277.53754 118.172614 
L 278.598503 181.546036 
L 279.659465 184.847254 
L 280.720428 173.75723 
L 281.78139 217.785432 
L 282.842353 194.908927 
L 283.903316 188.438702 
L 284.964278 170.679999 
L 286.025241 181.07246 
L 287.086203 174.927259 
L 288.147166 194.532794 
L 289.208128 181.978674 
L 290.269091 174.419647 
L 291.330053 179.607713 
L 292.391016 259.137981 
L 293.451979 220.982859 
L 294.512941 224.703027 
L 295.573904 231.99501 
L 296.634866 228.289187 
L 297.695829 211.430446 
L 298.756791 166.564834 
L 299.817754 194.028346 
L 300.878717 208.097553 
L 301.939679 189.958167 
L 303.000642 203.744452 
L 304.061604 201.80162 
L 305.122567 197.282943 
L 306.183529 205.893497 
L 307.244492 182.434606 
L 308.305455 177.145953 
L 309.366417 162.722201 
L 310.42738 106.809469 
L 311.488342 143.89111 
L 312.549305 131.077058 
L 313.610267 195.502754 
L 314.67123 190.899431 
L 315.732193 183.640556 
L 316.793155 154.339211 
L 317.854118 199.102536 
L 318.91508 175.057468 
L 321.037005 213.895136 
L 322.097968 193.747691 
L 323.15893 248.770463 
L 324.219893 235.363926 
L 325.280856 208.079322 
L 326.341818 211.764186 
L 327.402781 265.80135 
L 328.463743 251.292115 
L 329.524706 249.09089 
L 330.585668 295.488 
L 331.646631 263.425264 
L 332.707594 248.076336 
L 333.768556 269.439049 
L 334.829519 219.951149 
L 335.890481 291.28525 
L 336.951444 197.29923 
L 338.012406 169.471122 
L 339.073369 261.005968 
L 340.134332 241.828596 
L 341.195294 165.436823 
L 342.256257 257.846229 
L 343.317219 198.844395 
L 344.378182 196.19332 
L 345.439144 249.977019 
L 346.500107 261.529959 
L 347.56107 253.256141 
L 348.622032 156.79622 
L 349.682995 228.026898 
L 350.743957 203.005143 
L 351.80492 221.902042 
L 352.865882 207.187579 
L 353.926845 213.83957 
L 354.987807 207.093715 
L 356.04877 165.035209 
L 357.109733 171.842964 
L 358.170695 194.745605 
L 359.231658 264.430613 
L 360.29262 279.492134 
L 361.353583 256.918758 
L 362.414545 253.733023 
L 363.475508 286.69179 
L 364.536471 269.462188 
L 365.597433 270.005631 
L 367.719358 263.005597 
L 368.780321 266.466599 
L 369.841283 221.162693 
L 370.902246 228.97835 
L 371.963209 228.282668 
L 373.024171 234.432828 
L 374.085134 274.211042 
L 375.146096 236.237654 
L 376.207059 244.531584 
L 377.268021 257.292151 
L 378.328984 207.613469 
L 379.389947 215.917463 
L 381.511872 251.90755 
L 382.572834 247.12006 
L 383.633797 196.457976 
L 384.694759 239.203379 
L 385.755722 214.671481 
L 386.816684 200.388463 
L 387.877647 193.361913 
L 388.93861 192.195496 
L 389.999572 225.542415 
L 391.060535 208.193401 
L 392.121497 231.241085 
L 393.18246 257.72282 
L 394.243422 234.551313 
L 395.304385 125.776344 
L 396.365348 221.425385 
L 397.42631 219.367531 
L 398.487273 207.281371 
L 398.487273 207.281371 
" clip-path="url(#p3f889d3df3)" style="fill: none; stroke: #1f77b4; stroke-width: 1.5; stroke-linecap: square"/>
   </g>
   <g id="line2d_17">
    <path d="M 73.832727 173.817294 
L 74.89369 171.079416 
L 75.954652 169.192991 
L 77.015615 168.340855 
L 78.076578 167.021451 
L 79.13754 165.305209 
L 81.259465 163.034077 
L 83.38139 156.766378 
L 84.442353 155.190452 
L 85.503316 154.731854 
L 86.564278 156.076907 
L 87.625241 156.263804 
L 88.686203 156.665256 
L 89.747166 155.830093 
L 91.869091 152.437696 
L 93.991016 148.568998 
L 95.051979 147.337945 
L 96.112941 146.881993 
L 97.173904 147.072807 
L 98.234866 148.411201 
L 99.295829 150.296374 
L 100.356791 151.850325 
L 102.478717 153.47705 
L 103.539679 154.783509 
L 104.600642 156.418739 
L 105.661604 157.319204 
L 106.722567 157.151474 
L 107.783529 154.756278 
L 108.844492 151.189473 
L 109.905455 148.701036 
L 110.966417 147.567827 
L 112.02738 146.021092 
L 114.149305 143.957278 
L 116.27123 141.359367 
L 118.393155 139.600115 
L 119.454118 138.917427 
L 120.51508 138.452187 
L 121.576043 138.169629 
L 122.637005 137.756877 
L 124.75893 137.276573 
L 126.880856 137.107125 
L 127.941818 137.194145 
L 129.002781 137.516454 
L 130.063743 137.521881 
L 131.124706 137.72541 
L 134.307594 137.865041 
L 136.429519 137.60547 
L 138.551444 137.037339 
L 140.673369 136.41848 
L 141.734332 136.291807 
L 143.856257 136.89908 
L 147.039144 138.723934 
L 148.100107 139.381095 
L 149.16107 139.689743 
L 150.222032 140.158648 
L 151.282995 140.489609 
L 152.343957 141.021104 
L 153.40492 141.240516 
L 154.465882 140.918588 
L 155.526845 140.198129 
L 156.587807 137.563857 
L 157.64877 135.853566 
L 158.709733 134.558038 
L 159.770695 134.579167 
L 160.831658 136.999814 
L 164.014545 145.817281 
L 167.197433 158.233229 
L 168.258396 161.117362 
L 169.319358 161.808682 
L 170.380321 160.581239 
L 172.502246 156.430998 
L 173.563209 154.28323 
L 175.685134 151.031961 
L 176.746096 149.882409 
L 177.807059 149.663219 
L 178.868021 149.264776 
L 179.928984 149.162474 
L 180.989947 149.440934 
L 182.050909 148.722778 
L 183.111872 149.208568 
L 184.172834 151.136391 
L 185.233797 153.546687 
L 186.294759 157.339803 
L 187.355722 161.676737 
L 188.416684 164.561606 
L 189.477647 168.729144 
L 190.53861 169.950409 
L 191.599572 168.556381 
L 192.660535 165.101956 
L 193.721497 160.821946 
L 194.78246 157.813248 
L 195.843422 156.761371 
L 196.904385 157.226749 
L 197.965348 159.252786 
L 200.087273 165.333609 
L 202.209198 170.721745 
L 203.27016 172.53034 
L 204.331123 171.556866 
L 205.392086 170.1558 
L 206.453048 168.3651 
L 207.514011 167.064709 
L 208.574973 166.680275 
L 209.635936 165.580492 
L 211.757861 163.954732 
L 212.818824 163.622177 
L 213.879786 163.426283 
L 214.940749 163.382726 
L 217.062674 163.551843 
L 219.184599 159.95766 
L 220.245561 158.590772 
L 221.306524 158.030304 
L 222.367487 158.086386 
L 224.489412 159.810163 
L 225.550374 159.30699 
L 226.611337 158.248156 
L 227.672299 156.872928 
L 230.855187 151.50901 
L 231.91615 148.775342 
L 234.038075 140.309395 
L 235.099037 136.945992 
L 237.220963 131.767623 
L 238.281925 130.503245 
L 239.342888 130.134179 
L 240.40385 129.292156 
L 241.464813 129.243429 
L 242.525775 130.022578 
L 243.586738 131.152131 
L 244.647701 132.891938 
L 245.708663 135.199966 
L 246.769626 138.066494 
L 249.952513 149.16031 
L 251.013476 150.966201 
L 252.074439 149.866967 
L 253.135401 150.270854 
L 254.196364 151.823614 
L 255.257326 154.25198 
L 256.318289 155.541877 
L 257.379251 156.584563 
L 258.440214 157.878377 
L 259.501176 160.577758 
L 260.562139 164.116275 
L 261.623102 168.591865 
L 262.684064 172.439435 
L 263.745027 175.300115 
L 264.805989 177.555793 
L 265.866952 176.877775 
L 269.04984 172.175433 
L 270.110802 170.909504 
L 272.232727 168.186701 
L 273.29369 164.270844 
L 274.354652 158.863383 
L 275.415615 155.182296 
L 276.476578 153.992052 
L 277.53754 154.745927 
L 278.598503 157.129936 
L 279.659465 156.236969 
L 280.720428 157.452093 
L 281.78139 160.341692 
L 283.903316 167.090947 
L 284.964278 169.456877 
L 286.025241 170.653124 
L 287.086203 171.317344 
L 288.147166 172.162115 
L 289.208128 173.741327 
L 290.269091 174.673147 
L 291.330053 176.250731 
L 292.391016 175.400299 
L 293.451979 175.077548 
L 294.512941 176.088347 
L 295.573904 178.622873 
L 296.634866 181.718664 
L 297.695829 186.32495 
L 298.756791 189.983631 
L 299.817754 192.014035 
L 300.878717 192.533702 
L 303.000642 192.585783 
L 304.061604 192.273569 
L 305.122567 191.453558 
L 306.183529 189.517105 
L 307.244492 189.741431 
L 309.366417 183.112779 
L 310.42738 178.715467 
L 311.488342 175.458011 
L 313.610267 166.223929 
L 315.732193 158.748724 
L 316.793155 155.311494 
L 317.854118 153.410882 
L 318.91508 153.499746 
L 319.976043 156.590486 
L 321.037005 164.008085 
L 322.097968 170.330396 
L 323.15893 178.186038 
L 324.219893 186.932161 
L 325.280856 197.391011 
L 326.341818 205.515475 
L 327.402781 212.490662 
L 328.463743 215.816564 
L 329.524706 217.235459 
L 330.585668 217.264074 
L 331.646631 214.690048 
L 333.768556 204.63766 
L 334.829519 198.032541 
L 335.890481 195.860081 
L 336.951444 194.278037 
L 338.012406 194.957122 
L 340.134332 191.415497 
L 341.195294 189.999258 
L 342.256257 188.93983 
L 343.317219 188.040207 
L 344.378182 189.439042 
L 345.439144 195.639028 
L 346.500107 204.637837 
L 347.56107 209.016777 
L 348.622032 206.291386 
L 350.743957 177.762969 
L 351.80492 168.656242 
L 352.865882 167.290772 
L 353.926845 169.64908 
L 354.987807 174.325102 
L 356.04877 183.249447 
L 357.109733 195.414401 
L 358.170695 205.907409 
L 359.231658 219.697776 
L 360.29262 228.88137 
L 361.353583 227.447767 
L 362.414545 227.384312 
L 363.475508 228.750395 
L 364.536471 229.798076 
L 365.597433 229.845279 
L 366.658396 227.418543 
L 367.719358 220.121665 
L 368.780321 215.510723 
L 369.841283 210.35942 
L 370.902246 207.263398 
L 371.963209 205.460269 
L 373.024171 205.656321 
L 374.085134 207.975633 
L 375.146096 212.264719 
L 376.207059 217.687509 
L 377.268021 228.874399 
L 378.328984 227.181477 
L 379.389947 223.587014 
L 380.450909 220.528468 
L 381.511872 208.426431 
L 382.572834 189.759698 
L 383.633797 179.492816 
L 384.694759 176.379493 
L 386.816684 174.377978 
L 387.877647 175.947898 
L 388.93861 183.935694 
L 389.999572 195.530935 
L 391.060535 201.308503 
L 392.121497 202.668466 
L 394.243422 202.887682 
L 395.304385 203.281698 
L 396.365348 202.673621 
L 397.42631 201.64437 
L 398.487273 199.540862 
L 398.487273 199.540862 
" clip-path="url(#p3f889d3df3)" style="fill: none; stroke: #ff7f0e; stroke-width: 1.5; stroke-linecap: square"/>
   </g>
   <g id="patch_3">
    <path d="M 57.6 307.584 
L 57.6 41.472 
" style="fill: none; stroke: #000000; stroke-width: 0.8; stroke-linejoin: miter; stroke-linecap: square"/>
   </g>
   <g id="patch_4">
    <path d="M 414.72 307.584 
L 414.72 41.472 
" style="fill: none; stroke: #000000; stroke-width: 0.8; stroke-linejoin: miter; stroke-linecap: square"/>
   </g>
   <g id="patch_5">
    <path d="M 57.6 307.584 
L 414.72 307.584 
" style="fill: none; stroke: #000000; stroke-width: 0.8; stroke-linejoin: miter; stroke-linecap: square"/>
   </g>
   <g id="patch_6">
    <path d="M 57.6 41.472 
L 414.72 41.472 
" style="fill: none; stroke: #000000; stroke-width: 0.8; stroke-linejoin: miter; stroke-linecap: square"/>
   </g>
   <g id="legend_1">
    <g id="patch_7">
     <path d="M 320.11375 78.82825 
L 407.72 78.82825 
Q 409.72 78.82825 409.72 76.82825 
L 409.72 48.472 
Q 409.72 46.472 407.72 46.472 
L 320.11375 46.472 
Q 318.11375 46.472 318.11375 48.472 
L 318.11375 76.82825 
Q 318.11375 78.82825 320.11375 78.82825 
z
" style="fill: #ffffff; opacity: 0.8; stroke: #cccccc; stroke-linejoin: miter"/>
    </g>
    <g id="line2d_18">
     <path d="M 322.11375 54.570437 
L 332.11375 54.570437 
L 342.11375 54.570437 
" style="fill: none; stroke: #1f77b4; stroke-width: 1.5; stroke-linecap: square"/>
    </g>
    <g id="text_18">
     <!-- Rg Original -->
     <g transform="translate(350.11375 58.070437) scale(0.1 -0.1)">
      <defs>
       <path id="DejaVuSans-67" d="M 2906 1791 
Q 2906 2416 2648 2759 
Q 2391 3103 1925 3103 
Q 1463 3103 1205 2759 
Q 947 2416 947 1791 
Q 947 1169 1205 825 
Q 1463 481 1925 481 
Q 2391 481 2648 825 
Q 2906 1169 2906 1791 
z
M 3481 434 
Q 3481 -459 3084 -895 
Q 2688 -1331 1869 -1331 
Q 1566 -1331 1297 -1286 
Q 1028 -1241 775 -1147 
L 775 -588 
Q 1028 -725 1275 -790 
Q 1522 -856 1778 -856 
Q 2344 -856 2625 -561 
Q 2906 -266 2906 331 
L 2906 616 
Q 2728 306 2450 153 
Q 2172 0 1784 0 
Q 1141 0 747 490 
Q 353 981 353 1791 
Q 353 2603 747 3093 
Q 1141 3584 1784 3584 
Q 2172 3584 2450 3431 
Q 2728 3278 2906 2969 
L 2906 3500 
L 3481 3500 
L 3481 434 
z
" transform="scale(0.015625)"/>
       <path id="DejaVuSans-4f" d="M 2522 4238 
Q 1834 4238 1429 3725 
Q 1025 3213 1025 2328 
Q 1025 1447 1429 934 
Q 1834 422 2522 422 
Q 3209 422 3611 934 
Q 4013 1447 4013 2328 
Q 4013 3213 3611 3725 
Q 3209 4238 2522 4238 
z
M 2522 4750 
Q 3503 4750 4090 4092 
Q 4678 3434 4678 2328 
Q 4678 1225 4090 567 
Q 3503 -91 2522 -91 
Q 1538 -91 948 565 
Q 359 1222 359 2328 
Q 359 3434 948 4092 
Q 1538 4750 2522 4750 
z
" transform="scale(0.015625)"/>
      </defs>
      <use xlink:href="#DejaVuSans-52"/>
      <use xlink:href="#DejaVuSans-67" transform="translate(69.482422 0)"/>
      <use xlink:href="#DejaVuSans-20" transform="translate(132.958984 0)"/>
      <use xlink:href="#DejaVuSans-4f" transform="translate(164.746094 0)"/>
      <use xlink:href="#DejaVuSans-72" transform="translate(243.457031 0)"/>
      <use xlink:href="#DejaVuSans-69" transform="translate(284.570312 0)"/>
      <use xlink:href="#DejaVuSans-67" transform="translate(312.353516 0)"/>
      <use xlink:href="#DejaVuSans-69" transform="translate(375.830078 0)"/>
      <use xlink:href="#DejaVuSans-6e" transform="translate(403.613281 0)"/>
      <use xlink:href="#DejaVuSans-61" transform="translate(466.992188 0)"/>
      <use xlink:href="#DejaVuSans-6c" transform="translate(528.271484 0)"/>
     </g>
    </g>
    <g id="line2d_19">
     <path d="M 322.11375 69.248562 
L 332.11375 69.248562 
L 342.11375 69.248562 
" style="fill: none; stroke: #ff7f0e; stroke-width: 1.5; stroke-linecap: square"/>
    </g>
    <g id="text_19">
     <!-- Rg DMD -->
     <g transform="translate(350.11375 72.748562) scale(0.1 -0.1)">
      <defs>
       <path id="DejaVuSans-44" d="M 1259 4147 
L 1259 519 
L 2022 519 
Q 2988 519 3436 956 
Q 3884 1394 3884 2338 
Q 3884 3275 3436 3711 
Q 2988 4147 2022 4147 
L 1259 4147 
z
M 628 4666 
L 1925 4666 
Q 3281 4666 3915 4102 
Q 4550 3538 4550 2338 
Q 4550 1131 3912 565 
Q 3275 0 1925 0 
L 628 0 
L 628 4666 
z
" transform="scale(0.015625)"/>
       <path id="DejaVuSans-4d" d="M 628 4666 
L 1569 4666 
L 2759 1491 
L 3956 4666 
L 4897 4666 
L 4897 0 
L 4281 0 
L 4281 4097 
L 3078 897 
L 2444 897 
L 1241 4097 
L 1241 0 
L 628 0 
L 628 4666 
z
" transform="scale(0.015625)"/>
      </defs>
      <use xlink:href="#DejaVuSans-52"/>
      <use xlink:href="#DejaVuSans-67" transform="translate(69.482422 0)"/>
      <use xlink:href="#DejaVuSans-20" transform="translate(132.958984 0)"/>
      <use xlink:href="#DejaVuSans-44" transform="translate(164.746094 0)"/>
      <use xlink:href="#DejaVuSans-4d" transform="translate(241.748047 0)"/>
      <use xlink:href="#DejaVuSans-44" transform="translate(328.027344 0)"/>
     </g>
    </g>
   </g>
  </g>
 </g>
 <defs>
  <clipPath id="p3f889d3df3">
   <rect x="57.6" y="41.472" width="357.12" height="266.112"/>
  </clipPath>
 </defs>
</svg>
