<?xml version="1.0" encoding="utf-8" standalone="no"?>
<!DOCTYPE svg PUBLIC "-//W3C//DTD SVG 1.1//EN"
  "http://www.w3.org/Graphics/SVG/1.1/DTD/svg11.dtd">
<svg xmlns:xlink="http://www.w3.org/1999/xlink" width="460.8pt" height="345.6pt" viewBox="0 0 460.8 345.6" xmlns="http://www.w3.org/2000/svg" version="1.1">
 <metadata>
  <rdf:RDF xmlns:dc="http://purl.org/dc/elements/1.1/" xmlns:cc="http://creativecommons.org/ns#" xmlns:rdf="http://www.w3.org/1999/02/22-rdf-syntax-ns#">
   <cc:Work>
    <dc:type rdf:resource="http://purl.org/dc/dcmitype/StillImage"/>
    <dc:date>2025-12-16T22:05:36.844729</dc:date>
    <dc:format>image/svg+xml</dc:format>
    <dc:creator>
     <cc:Agent>
      <dc:title>Matplotlib v3.10.8, https://matplotlib.org/</dc:title>
     </cc:Agent>
    </dc:creator>
   </cc:Work>
  </rdf:RDF>
 </metadata>
 <defs>
  <style type="text/css">*{stroke-linejoin: round; stroke-linecap: butt}</style>
 </defs>
 <g id="figure_1">
  <g id="patch_1">
   <path d="M 0 345.6 
L 460.8 345.6 
L 460.8 0 
L 0 0 
z
" style="fill: #ffffff"/>
  </g>
  <g id="axes_1">
   <g id="patch_2">
    <path d="M 57.6 307.584 
L 414.72 307.584 
L 414.72 41.472 
L 57.6 41.472 
z
" style="fill: #ffffff"/>
   </g>
   <g id="matplotlib.axis_1">
    <g id="xtick_1">
     <g id="line2d_1">
      <defs>
       <path id="ma5279b603a" d="M 0 0 
L 0 3.5 
" style="stroke: #000000; stroke-width: 0.8"/>
      </defs>
      <g>
       <use xlink:href="#ma5279b603a" x="73.832727" y="307.584" style="stroke: #000000; stroke-width: 0.8"/>
      </g>
     </g>
     <g id="text_1">
      <!-- 0 -->
      <g transform="translate(70.651477 322.182437) scale(0.1 -0.1)">
       <defs>
        <path id="DejaVuSans-30" d="M 2034 4250 
Q 1547 4250 1301 3770 
Q 1056 3291 1056 2328 
Q 1056 1369 1301 889 
Q 1547 409 2034 409 
Q 2525 409 2770 889 
Q 3016 1369 3016 2328 
Q 3016 3291 2770 3770 
Q 2525 4250 2034 4250 
z
M 2034 4750 
Q 2819 4750 3233 4129 
Q 3647 3509 3647 2328 
Q 3647 1150 3233 529 
Q 2819 -91 2034 -91 
Q 1250 -91 836 529 
Q 422 1150 422 2328 
Q 422 3509 836 4129 
Q 1250 4750 2034 4750 
z
" transform="scale(0.015625)"/>
       </defs>
       <use xlink:href="#DejaVuSans-30"/>
      </g>
     </g>
    </g>
    <g id="xtick_2">
     <g id="line2d_2">
      <g>
       <use xlink:href="#ma5279b603a" x="126.880856" y="307.584" style="stroke: #000000; stroke-width: 0.8"/>
      </g>
     </g>
     <g id="text_2">
      <!-- 50 -->
      <g transform="translate(120.518356 322.182437) scale(0.1 -0.1)">
       <defs>
        <path id="DejaVuSans-35" d="M 691 4666 
L 3169 4666 
L 3169 4134 
L 1269 4134 
L 1269 2991 
Q 1406 3038 1543 3061 
Q 1681 3084 1819 3084 
Q 2600 3084 3056 2656 
Q 3513 2228 3513 1497 
Q 3513 744 3044 326 
Q 2575 -91 1722 -91 
Q 1428 -91 1123 -41 
Q 819 9 494 109 
L 494 744 
Q 775 591 1075 516 
Q 1375 441 1709 441 
Q 2250 441 2565 725 
Q 2881 1009 2881 1497 
Q 2881 1984 2565 2268 
Q 2250 2553 1709 2553 
Q 1456 2553 1204 2497 
Q 953 2441 691 2322 
L 691 4666 
z
" transform="scale(0.015625)"/>
       </defs>
       <use xlink:href="#DejaVuSans-35"/>
       <use xlink:href="#DejaVuSans-30" transform="translate(63.623047 0)"/>
      </g>
     </g>
    </g>
    <g id="xtick_3">
     <g id="line2d_3">
      <g>
       <use xlink:href="#ma5279b603a" x="179.928984" y="307.584" style="stroke: #000000; stroke-width: 0.8"/>
      </g>
     </g>
     <g id="text_3">
      <!-- 100 -->
      <g transform="translate(170.385234 322.182437) scale(0.1 -0.1)">
       <defs>
        <path id="DejaVuSans-31" d="M 794 531 
L 1825 531 
L 1825 4091 
L 703 3866 
L 703 4441 
L 1819 4666 
L 2450 4666 
L 2450 531 
L 3481 531 
L 3481 0 
L 794 0 
L 794 531 
z
" transform="scale(0.015625)"/>
       </defs>
       <use xlink:href="#DejaVuSans-31"/>
       <use xlink:href="#DejaVuSans-30" transform="translate(63.623047 0)"/>
       <use xlink:href="#DejaVuSans-30" transform="translate(127.246094 0)"/>
      </g>
     </g>
    </g>
    <g id="xtick_4">
     <g id="line2d_4">
      <g>
       <use xlink:href="#ma5279b603a" x="232.977112" y="307.584" style="stroke: #000000; stroke-width: 0.8"/>
      </g>
     </g>
     <g id="text_4">
      <!-- 150 -->
      <g transform="translate(223.433362 322.182437) scale(0.1 -0.1)">
       <use xlink:href="#DejaVuSans-31"/>
       <use xlink:href="#DejaVuSans-35" transform="translate(63.623047 0)"/>
       <use xlink:href="#DejaVuSans-30" transform="translate(127.246094 0)"/>
      </g>
     </g>
    </g>
    <g id="xtick_5">
     <g id="line2d_5">
      <g>
       <use xlink:href="#ma5279b603a" x="286.025241" y="307.584" style="stroke: #000000; stroke-width: 0.8"/>
      </g>
     </g>
     <g id="text_5">
      <!-- 200 -->
      <g transform="translate(276.481491 322.182437) scale(0.1 -0.1)">
       <defs>
        <path id="DejaVuSans-32" d="M 1228 531 
L 3431 531 
L 3431 0 
L 469 0 
L 469 531 
Q 828 903 1448 1529 
Q 2069 2156 2228 2338 
Q 2531 2678 2651 2914 
Q 2772 3150 2772 3378 
Q 2772 3750 2511 3984 
Q 2250 4219 1831 4219 
Q 1534 4219 1204 4116 
Q 875 4013 500 3803 
L 500 4441 
Q 881 4594 1212 4672 
Q 1544 4750 1819 4750 
Q 2544 4750 2975 4387 
Q 3406 4025 3406 3419 
Q 3406 3131 3298 2873 
Q 3191 2616 2906 2266 
Q 2828 2175 2409 1742 
Q 1991 1309 1228 531 
z
" transform="scale(0.015625)"/>
       </defs>
       <use xlink:href="#DejaVuSans-32"/>
       <use xlink:href="#DejaVuSans-30" transform="translate(63.623047 0)"/>
       <use xlink:href="#DejaVuSans-30" transform="translate(127.246094 0)"/>
      </g>
     </g>
    </g>
    <g id="xtick_6">
     <g id="line2d_6">
      <g>
       <use xlink:href="#ma5279b603a" x="339.073369" y="307.584" style="stroke: #000000; stroke-width: 0.8"/>
      </g>
     </g>
     <g id="text_6">
      <!-- 250 -->
      <g transform="translate(329.529619 322.182437) scale(0.1 -0.1)">
       <use xlink:href="#DejaVuSans-32"/>
       <use xlink:href="#DejaVuSans-35" transform="translate(63.623047 0)"/>
       <use xlink:href="#DejaVuSans-30" transform="translate(127.246094 0)"/>
      </g>
     </g>
    </g>
    <g id="xtick_7">
     <g id="line2d_7">
      <g>
       <use xlink:href="#ma5279b603a" x="392.121497" y="307.584" style="stroke: #000000; stroke-width: 0.8"/>
      </g>
     </g>
     <g id="text_7">
      <!-- 300 -->
      <g transform="translate(382.577747 322.182437) scale(0.1 -0.1)">
       <defs>
        <path id="DejaVuSans-33" d="M 2597 2516 
Q 3050 2419 3304 2112 
Q 3559 1806 3559 1356 
Q 3559 666 3084 287 
Q 2609 -91 1734 -91 
Q 1441 -91 1130 -33 
Q 819 25 488 141 
L 488 750 
Q 750 597 1062 519 
Q 1375 441 1716 441 
Q 2309 441 2620 675 
Q 2931 909 2931 1356 
Q 2931 1769 2642 2001 
Q 2353 2234 1838 2234 
L 1294 2234 
L 1294 2753 
L 1863 2753 
Q 2328 2753 2575 2939 
Q 2822 3125 2822 3475 
Q 2822 3834 2567 4026 
Q 2313 4219 1838 4219 
Q 1578 4219 1281 4162 
Q 984 4106 628 3988 
L 628 4550 
Q 988 4650 1302 4700 
Q 1616 4750 1894 4750 
Q 2613 4750 3031 4423 
Q 3450 4097 3450 3541 
Q 3450 3153 3228 2886 
Q 3006 2619 2597 2516 
z
" transform="scale(0.015625)"/>
       </defs>
       <use xlink:href="#DejaVuSans-33"/>
       <use xlink:href="#DejaVuSans-30" transform="translate(63.623047 0)"/>
       <use xlink:href="#DejaVuSans-30" transform="translate(127.246094 0)"/>
      </g>
     </g>
    </g>
    <g id="text_8">
     <!-- Frames -->
     <g transform="translate(217.975625 335.860562) scale(0.1 -0.1)">
      <defs>
       <path id="DejaVuSans-46" d="M 628 4666 
L 3309 4666 
L 3309 4134 
L 1259 4134 
L 1259 2759 
L 3109 2759 
L 3109 2228 
L 1259 2228 
L 1259 0 
L 628 0 
L 628 4666 
z
" transform="scale(0.015625)"/>
       <path id="DejaVuSans-72" d="M 2631 2963 
Q 2534 3019 2420 3045 
Q 2306 3072 2169 3072 
Q 1681 3072 1420 2755 
Q 1159 2438 1159 1844 
L 1159 0 
L 581 0 
L 581 3500 
L 1159 3500 
L 1159 2956 
Q 1341 3275 1631 3429 
Q 1922 3584 2338 3584 
Q 2397 3584 2469 3576 
Q 2541 3569 2628 3553 
L 2631 2963 
z
" transform="scale(0.015625)"/>
       <path id="DejaVuSans-61" d="M 2194 1759 
Q 1497 1759 1228 1600 
Q 959 1441 959 1056 
Q 959 750 1161 570 
Q 1363 391 1709 391 
Q 2188 391 2477 730 
Q 2766 1069 2766 1631 
L 2766 1759 
L 2194 1759 
z
M 3341 1997 
L 3341 0 
L 2766 0 
L 2766 531 
Q 2569 213 2275 61 
Q 1981 -91 1556 -91 
Q 1019 -91 701 211 
Q 384 513 384 1019 
Q 384 1609 779 1909 
Q 1175 2209 1959 2209 
L 2766 2209 
L 2766 2266 
Q 2766 2663 2505 2880 
Q 2244 3097 1772 3097 
Q 1472 3097 1187 3025 
Q 903 2953 641 2809 
L 641 3341 
Q 956 3463 1253 3523 
Q 1550 3584 1831 3584 
Q 2591 3584 2966 3190 
Q 3341 2797 3341 1997 
z
" transform="scale(0.015625)"/>
       <path id="DejaVuSans-6d" d="M 3328 2828 
Q 3544 3216 3844 3400 
Q 4144 3584 4550 3584 
Q 5097 3584 5394 3201 
Q 5691 2819 5691 2113 
L 5691 0 
L 5113 0 
L 5113 2094 
Q 5113 2597 4934 2840 
Q 4756 3084 4391 3084 
Q 3944 3084 3684 2787 
Q 3425 2491 3425 1978 
L 3425 0 
L 2847 0 
L 2847 2094 
Q 2847 2600 2669 2842 
Q 2491 3084 2119 3084 
Q 1678 3084 1418 2786 
Q 1159 2488 1159 1978 
L 1159 0 
L 581 0 
L 581 3500 
L 1159 3500 
L 1159 2956 
Q 1356 3278 1631 3431 
Q 1906 3584 2284 3584 
Q 2666 3584 2933 3390 
Q 3200 3197 3328 2828 
z
" transform="scale(0.015625)"/>
       <path id="DejaVuSans-65" d="M 3597 1894 
L 3597 1613 
L 953 1613 
Q 991 1019 1311 708 
Q 1631 397 2203 397 
Q 2534 397 2845 478 
Q 3156 559 3463 722 
L 3463 178 
Q 3153 47 2828 -22 
Q 2503 -91 2169 -91 
Q 1331 -91 842 396 
Q 353 884 353 1716 
Q 353 2575 817 3079 
Q 1281 3584 2069 3584 
Q 2775 3584 3186 3129 
Q 3597 2675 3597 1894 
z
M 3022 2063 
Q 3016 2534 2758 2815 
Q 2500 3097 2075 3097 
Q 1594 3097 1305 2825 
Q 1016 2553 972 2059 
L 3022 2063 
z
" transform="scale(0.015625)"/>
       <path id="DejaVuSans-73" d="M 2834 3397 
L 2834 2853 
Q 2591 2978 2328 3040 
Q 2066 3103 1784 3103 
Q 1356 3103 1142 2972 
Q 928 2841 928 2578 
Q 928 2378 1081 2264 
Q 1234 2150 1697 2047 
L 1894 2003 
Q 2506 1872 2764 1633 
Q 3022 1394 3022 966 
Q 3022 478 2636 193 
Q 2250 -91 1575 -91 
Q 1294 -91 989 -36 
Q 684 19 347 128 
L 347 722 
Q 666 556 975 473 
Q 1284 391 1588 391 
Q 1994 391 2212 530 
Q 2431 669 2431 922 
Q 2431 1156 2273 1281 
Q 2116 1406 1581 1522 
L 1381 1569 
Q 847 1681 609 1914 
Q 372 2147 372 2553 
Q 372 3047 722 3315 
Q 1072 3584 1716 3584 
Q 2034 3584 2315 3537 
Q 2597 3491 2834 3397 
z
" transform="scale(0.015625)"/>
      </defs>
      <use xlink:href="#DejaVuSans-46"/>
      <use xlink:href="#DejaVuSans-72" transform="translate(50.269531 0)"/>
      <use xlink:href="#DejaVuSans-61" transform="translate(91.382812 0)"/>
      <use xlink:href="#DejaVuSans-6d" transform="translate(152.662109 0)"/>
      <use xlink:href="#DejaVuSans-65" transform="translate(250.074219 0)"/>
      <use xlink:href="#DejaVuSans-73" transform="translate(311.597656 0)"/>
     </g>
    </g>
   </g>
   <g id="matplotlib.axis_2">
    <g id="ytick_1">
     <g id="line2d_8">
      <defs>
       <path id="m7c292c193b" d="M 0 0 
L -3.5 0 
" style="stroke: #000000; stroke-width: 0.8"/>
      </defs>
      <g>
       <use xlink:href="#m7c292c193b" x="57.6" y="295.488" style="stroke: #000000; stroke-width: 0.8"/>
      </g>
     </g>
     <g id="text_9">
      <!-- 0 -->
      <g transform="translate(44.2375 299.287219) scale(0.1 -0.1)">
       <use xlink:href="#DejaVuSans-30"/>
      </g>
     </g>
    </g>
    <g id="ytick_2">
     <g id="line2d_9">
      <g>
       <use xlink:href="#m7c292c193b" x="57.6" y="265.284601" style="stroke: #000000; stroke-width: 0.8"/>
      </g>
     </g>
     <g id="text_10">
      <!-- 25 -->
      <g transform="translate(37.875 269.08382) scale(0.1 -0.1)">
       <use xlink:href="#DejaVuSans-32"/>
       <use xlink:href="#DejaVuSans-35" transform="translate(63.623047 0)"/>
      </g>
     </g>
    </g>
    <g id="ytick_3">
     <g id="line2d_10">
      <g>
       <use xlink:href="#m7c292c193b" x="57.6" y="235.081203" style="stroke: #000000; stroke-width: 0.8"/>
      </g>
     </g>
     <g id="text_11">
      <!-- 50 -->
      <g transform="translate(37.875 238.880421) scale(0.1 -0.1)">
       <use xlink:href="#DejaVuSans-35"/>
       <use xlink:href="#DejaVuSans-30" transform="translate(63.623047 0)"/>
      </g>
     </g>
    </g>
    <g id="ytick_4">
     <g id="line2d_11">
      <g>
       <use xlink:href="#m7c292c193b" x="57.6" y="204.877804" style="stroke: #000000; stroke-width: 0.8"/>
      </g>
     </g>
     <g id="text_12">
      <!-- 75 -->
      <g transform="translate(37.875 208.677023) scale(0.1 -0.1)">
       <defs>
        <path id="DejaVuSans-37" d="M 525 4666 
L 3525 4666 
L 3525 4397 
L 1831 0 
L 1172 0 
L 2766 4134 
L 525 4134 
L 525 4666 
z
" transform="scale(0.015625)"/>
       </defs>
       <use xlink:href="#DejaVuSans-37"/>
       <use xlink:href="#DejaVuSans-35" transform="translate(63.623047 0)"/>
      </g>
     </g>
    </g>
    <g id="ytick_5">
     <g id="line2d_12">
      <g>
       <use xlink:href="#m7c292c193b" x="57.6" y="174.674405" style="stroke: #000000; stroke-width: 0.8"/>
      </g>
     </g>
     <g id="text_13">
      <!-- 100 -->
      <g transform="translate(31.5125 178.473624) scale(0.1 -0.1)">
       <use xlink:href="#DejaVuSans-31"/>
       <use xlink:href="#DejaVuSans-30" transform="translate(63.623047 0)"/>
       <use xlink:href="#DejaVuSans-30" transform="translate(127.246094 0)"/>
      </g>
     </g>
    </g>
    <g id="ytick_6">
     <g id="line2d_13">
      <g>
       <use xlink:href="#m7c292c193b" x="57.6" y="144.471006" style="stroke: #000000; stroke-width: 0.8"/>
      </g>
     </g>
     <g id="text_14">
      <!-- 125 -->
      <g transform="translate(31.5125 148.270225) scale(0.1 -0.1)">
       <use xlink:href="#DejaVuSans-31"/>
       <use xlink:href="#DejaVuSans-32" transform="translate(63.623047 0)"/>
       <use xlink:href="#DejaVuSans-35" transform="translate(127.246094 0)"/>
      </g>
     </g>
    </g>
    <g id="ytick_7">
     <g id="line2d_14">
      <g>
       <use xlink:href="#m7c292c193b" x="57.6" y="114.267608" style="stroke: #000000; stroke-width: 0.8"/>
      </g>
     </g>
     <g id="text_15">
      <!-- 150 -->
      <g transform="translate(31.5125 118.066826) scale(0.1 -0.1)">
       <use xlink:href="#DejaVuSans-31"/>
       <use xlink:href="#DejaVuSans-35" transform="translate(63.623047 0)"/>
       <use xlink:href="#DejaVuSans-30" transform="translate(127.246094 0)"/>
      </g>
     </g>
    </g>
    <g id="ytick_8">
     <g id="line2d_15">
      <g>
       <use xlink:href="#m7c292c193b" x="57.6" y="84.064209" style="stroke: #000000; stroke-width: 0.8"/>
      </g>
     </g>
     <g id="text_16">
      <!-- 175 -->
      <g transform="translate(31.5125 87.863428) scale(0.1 -0.1)">
       <use xlink:href="#DejaVuSans-31"/>
       <use xlink:href="#DejaVuSans-37" transform="translate(63.623047 0)"/>
       <use xlink:href="#DejaVuSans-35" transform="translate(127.246094 0)"/>
      </g>
     </g>
    </g>
    <g id="ytick_9">
     <g id="line2d_16">
      <g>
       <use xlink:href="#m7c292c193b" x="57.6" y="53.86081" style="stroke: #000000; stroke-width: 0.8"/>
      </g>
     </g>
     <g id="text_17">
      <!-- 200 -->
      <g transform="translate(31.5125 57.660029) scale(0.1 -0.1)">
       <use xlink:href="#DejaVuSans-32"/>
       <use xlink:href="#DejaVuSans-30" transform="translate(63.623047 0)"/>
       <use xlink:href="#DejaVuSans-30" transform="translate(127.246094 0)"/>
      </g>
     </g>
    </g>
    <g id="text_18">
     <!-- RMSD (pixel) -->
     <g transform="translate(25.432812 206.663156) rotate(-90) scale(0.1 -0.1)">
      <defs>
       <path id="DejaVuSans-52" d="M 2841 2188 
Q 3044 2119 3236 1894 
Q 3428 1669 3622 1275 
L 4263 0 
L 3584 0 
L 2988 1197 
Q 2756 1666 2539 1819 
Q 2322 1972 1947 1972 
L 1259 1972 
L 1259 0 
L 628 0 
L 628 4666 
L 2053 4666 
Q 2853 4666 3247 4331 
Q 3641 3997 3641 3322 
Q 3641 2881 3436 2590 
Q 3231 2300 2841 2188 
z
M 1259 4147 
L 1259 2491 
L 2053 2491 
Q 2509 2491 2742 2702 
Q 2975 2913 2975 3322 
Q 2975 3731 2742 3939 
Q 2509 4147 2053 4147 
L 1259 4147 
z
" transform="scale(0.015625)"/>
       <path id="DejaVuSans-4d" d="M 628 4666 
L 1569 4666 
L 2759 1491 
L 3956 4666 
L 4897 4666 
L 4897 0 
L 4281 0 
L 4281 4097 
L 3078 897 
L 2444 897 
L 1241 4097 
L 1241 0 
L 628 0 
L 628 4666 
z
" transform="scale(0.015625)"/>
       <path id="DejaVuSans-53" d="M 3425 4513 
L 3425 3897 
Q 3066 4069 2747 4153 
Q 2428 4238 2131 4238 
Q 1616 4238 1336 4038 
Q 1056 3838 1056 3469 
Q 1056 3159 1242 3001 
Q 1428 2844 1947 2747 
L 2328 2669 
Q 3034 2534 3370 2195 
Q 3706 1856 3706 1288 
Q 3706 609 3251 259 
Q 2797 -91 1919 -91 
Q 1588 -91 1214 -16 
Q 841 59 441 206 
L 441 856 
Q 825 641 1194 531 
Q 1563 422 1919 422 
Q 2459 422 2753 634 
Q 3047 847 3047 1241 
Q 3047 1584 2836 1778 
Q 2625 1972 2144 2069 
L 1759 2144 
Q 1053 2284 737 2584 
Q 422 2884 422 3419 
Q 422 4038 858 4394 
Q 1294 4750 2059 4750 
Q 2388 4750 2728 4690 
Q 3069 4631 3425 4513 
z
" transform="scale(0.015625)"/>
       <path id="DejaVuSans-44" d="M 1259 4147 
L 1259 519 
L 2022 519 
Q 2988 519 3436 956 
Q 3884 1394 3884 2338 
Q 3884 3275 3436 3711 
Q 2988 4147 2022 4147 
L 1259 4147 
z
M 628 4666 
L 1925 4666 
Q 3281 4666 3915 4102 
Q 4550 3538 4550 2338 
Q 4550 1131 3912 565 
Q 3275 0 1925 0 
L 628 0 
L 628 4666 
z
" transform="scale(0.015625)"/>
       <path id="DejaVuSans-20" transform="scale(0.015625)"/>
       <path id="DejaVuSans-28" d="M 1984 4856 
Q 1566 4138 1362 3434 
Q 1159 2731 1159 2009 
Q 1159 1288 1364 580 
Q 1569 -128 1984 -844 
L 1484 -844 
Q 1016 -109 783 600 
Q 550 1309 550 2009 
Q 550 2706 781 3412 
Q 1013 4119 1484 4856 
L 1984 4856 
z
" transform="scale(0.015625)"/>
       <path id="DejaVuSans-70" d="M 1159 525 
L 1159 -1331 
L 581 -1331 
L 581 3500 
L 1159 3500 
L 1159 2969 
Q 1341 3281 1617 3432 
Q 1894 3584 2278 3584 
Q 2916 3584 3314 3078 
Q 3713 2572 3713 1747 
Q 3713 922 3314 415 
Q 2916 -91 2278 -91 
Q 1894 -91 1617 61 
Q 1341 213 1159 525 
z
M 3116 1747 
Q 3116 2381 2855 2742 
Q 2594 3103 2138 3103 
Q 1681 3103 1420 2742 
Q 1159 2381 1159 1747 
Q 1159 1113 1420 752 
Q 1681 391 2138 391 
Q 2594 391 2855 752 
Q 3116 1113 3116 1747 
z
" transform="scale(0.015625)"/>
       <path id="DejaVuSans-69" d="M 603 3500 
L 1178 3500 
L 1178 0 
L 603 0 
L 603 3500 
z
M 603 4863 
L 1178 4863 
L 1178 4134 
L 603 4134 
L 603 4863 
z
" transform="scale(0.015625)"/>
       <path id="DejaVuSans-78" d="M 3513 3500 
L 2247 1797 
L 3578 0 
L 2900 0 
L 1881 1375 
L 863 0 
L 184 0 
L 1544 1831 
L 300 3500 
L 978 3500 
L 1906 2253 
L 2834 3500 
L 3513 3500 
z
" transform="scale(0.015625)"/>
       <path id="DejaVuSans-6c" d="M 603 4863 
L 1178 4863 
L 1178 0 
L 603 0 
L 603 4863 
z
" transform="scale(0.015625)"/>
       <path id="DejaVuSans-29" d="M 513 4856 
L 1013 4856 
Q 1481 4119 1714 3412 
Q 1947 2706 1947 2009 
Q 1947 1309 1714 600 
Q 1481 -109 1013 -844 
L 513 -844 
Q 928 -128 1133 580 
Q 1338 1288 1338 2009 
Q 1338 2731 1133 3434 
Q 928 4138 513 4856 
z
" transform="scale(0.015625)"/>
      </defs>
      <use xlink:href="#DejaVuSans-52"/>
      <use xlink:href="#DejaVuSans-4d" transform="translate(69.482422 0)"/>
      <use xlink:href="#DejaVuSans-53" transform="translate(155.761719 0)"/>
      <use xlink:href="#DejaVuSans-44" transform="translate(219.238281 0)"/>
      <use xlink:href="#DejaVuSans-20" transform="translate(296.240234 0)"/>
      <use xlink:href="#DejaVuSans-28" transform="translate(328.027344 0)"/>
      <use xlink:href="#DejaVuSans-70" transform="translate(367.041016 0)"/>
      <use xlink:href="#DejaVuSans-69" transform="translate(430.517578 0)"/>
      <use xlink:href="#DejaVuSans-78" transform="translate(458.300781 0)"/>
      <use xlink:href="#DejaVuSans-65" transform="translate(514.355469 0)"/>
      <use xlink:href="#DejaVuSans-6c" transform="translate(575.878906 0)"/>
      <use xlink:href="#DejaVuSans-29" transform="translate(603.662109 0)"/>
     </g>
    </g>
   </g>
   <g id="line2d_17">
    <path d="M 73.832727 295.488 
L 74.89369 152.492452 
L 75.954652 158.008886 
L 77.015615 158.087449 
L 78.076578 116.971459 
L 79.13754 154.477241 
L 80.198503 119.939579 
L 81.259465 132.77064 
L 82.320428 137.237977 
L 83.38139 155.396919 
L 84.442353 140.378194 
L 85.503316 154.131046 
L 86.564278 158.852295 
L 87.625241 140.178951 
L 88.686203 123.869766 
L 89.747166 119.877821 
L 90.808128 134.172465 
L 91.869091 130.006483 
L 92.930053 129.266314 
L 93.991016 126.189274 
L 95.051979 138.085522 
L 96.112941 123.937889 
L 97.173904 142.153669 
L 98.234866 147.761723 
L 99.295829 145.07994 
L 100.356791 147.470506 
L 101.417754 157.400044 
L 102.478717 129.064587 
L 103.539679 126.090473 
L 104.600642 132.024885 
L 105.661604 135.152154 
L 106.722567 120.988194 
L 107.783529 135.321968 
L 108.844492 132.726305 
L 109.905455 127.467714 
L 110.966417 147.28277 
L 112.02738 126.158036 
L 113.088342 110.492208 
L 114.149305 151.98371 
L 115.210267 124.99976 
L 116.27123 127.12174 
L 117.332193 120.45259 
L 118.393155 129.48543 
L 119.454118 137.559921 
L 121.576043 125.799442 
L 122.637005 136.794045 
L 123.697968 121.465294 
L 124.75893 138.173249 
L 125.819893 144.206025 
L 126.880856 133.519385 
L 127.941818 136.61842 
L 129.002781 129.859468 
L 130.063743 128.494706 
L 131.124706 88.80398 
L 132.185668 129.952276 
L 133.246631 135.332807 
L 134.307594 119.150182 
L 135.368556 130.416548 
L 136.429519 127.890032 
L 138.551444 137.110423 
L 139.612406 115.501476 
L 140.673369 128.552851 
L 141.734332 127.034403 
L 142.795294 137.643038 
L 143.856257 111.590396 
L 144.917219 126.679398 
L 145.978182 131.083125 
L 147.039144 144.6529 
L 148.100107 132.591424 
L 149.16107 142.778157 
L 150.222032 136.040766 
L 151.282995 120.546175 
L 153.40492 137.024849 
L 154.465882 123.195495 
L 155.526845 139.09754 
L 156.587807 120.014789 
L 157.64877 132.609175 
L 158.709733 121.718817 
L 159.770695 116.050348 
L 160.831658 116.339704 
L 161.89262 118.851144 
L 162.953583 151.732015 
L 164.014545 90.705953 
L 165.075508 100.745217 
L 166.136471 139.803281 
L 167.197433 127.791711 
L 168.258396 148.851996 
L 169.319358 131.309502 
L 170.380321 125.833509 
L 171.441283 148.667856 
L 172.502246 134.978946 
L 173.563209 108.848654 
L 174.624171 115.112434 
L 175.685134 125.881533 
L 176.746096 94.537284 
L 177.807059 116.390486 
L 178.868021 102.04964 
L 179.928984 99.378059 
L 180.989947 103.72085 
L 182.050909 97.915903 
L 183.111872 100.49055 
L 185.233797 155.038726 
L 186.294759 132.092609 
L 187.355722 152.170785 
L 188.416684 145.070302 
L 189.477647 155.663426 
L 190.53861 157.149844 
L 191.599572 136.909202 
L 192.660535 144.751316 
L 193.721497 148.032883 
L 194.78246 160.288581 
L 195.843422 165.843878 
L 196.904385 152.455965 
L 197.965348 146.394544 
L 199.02631 151.456695 
L 200.087273 145.026171 
L 201.148235 122.942656 
L 202.209198 124.966062 
L 203.27016 157.608592 
L 204.331123 152.194927 
L 205.392086 156.048594 
L 206.453048 162.97603 
L 207.514011 146.164811 
L 208.574973 159.71332 
L 209.635936 144.049475 
L 210.696898 154.598984 
L 212.818824 138.534645 
L 213.879786 134.492345 
L 214.940749 133.163579 
L 216.001711 149.25646 
L 217.062674 144.016569 
L 218.123636 113.988312 
L 219.184599 153.380014 
L 220.245561 130.760633 
L 222.367487 161.662765 
L 223.428449 128.253897 
L 224.489412 136.833431 
L 225.550374 127.417907 
L 226.611337 153.228883 
L 227.672299 152.013381 
L 228.733262 145.895461 
L 229.794225 146.050344 
L 230.855187 142.071093 
L 231.91615 119.536245 
L 232.977112 155.696068 
L 234.038075 151.351465 
L 235.099037 102.08127 
L 236.16 91.633798 
L 237.220963 157.252271 
L 238.281925 78.79766 
L 239.342888 107.345258 
L 240.40385 53.568 
L 241.464813 125.851655 
L 242.525775 121.923942 
L 243.586738 111.212507 
L 244.647701 148.448026 
L 245.708663 105.449581 
L 246.769626 97.495436 
L 247.830588 140.668645 
L 248.891551 112.648356 
L 249.952513 125.988036 
L 251.013476 143.736031 
L 252.074439 131.315709 
L 253.135401 121.603283 
L 254.196364 122.346354 
L 255.257326 119.388713 
L 256.318289 106.531644 
L 257.379251 144.052915 
L 258.440214 128.353252 
L 259.501176 141.220991 
L 260.562139 143.467876 
L 261.623102 115.556128 
L 262.684064 134.221871 
L 264.805989 148.36674 
L 265.866952 159.885746 
L 266.927914 158.17531 
L 267.988877 116.046867 
L 269.04984 153.377201 
L 270.110802 157.523012 
L 271.171765 121.536384 
L 272.232727 128.724685 
L 273.29369 149.868856 
L 274.354652 145.308918 
L 275.415615 132.91631 
L 277.53754 93.403628 
L 278.598503 137.206449 
L 279.659465 157.162437 
L 280.720428 134.352896 
L 281.78139 134.601831 
L 282.842353 139.94011 
L 283.903316 118.499771 
L 284.964278 127.013557 
L 286.025241 141.348073 
L 287.086203 150.791772 
L 288.147166 146.899903 
L 289.208128 137.797557 
L 290.269091 127.646862 
L 292.391016 147.420155 
L 293.451979 133.218678 
L 294.512941 131.205561 
L 295.573904 133.660163 
L 296.634866 153.906454 
L 297.695829 154.782418 
L 298.756791 140.375824 
L 300.878717 158.962134 
L 301.939679 147.913989 
L 303.000642 145.576578 
L 304.061604 146.450954 
L 305.122567 144.97088 
L 306.183529 146.442199 
L 307.244492 134.322384 
L 308.305455 143.141524 
L 309.366417 143.424998 
L 310.42738 117.617457 
L 311.488342 142.850964 
L 312.549305 110.595511 
L 313.610267 133.714956 
L 314.67123 103.256204 
L 315.732193 123.845794 
L 316.793155 89.300913 
L 317.854118 121.287343 
L 318.91508 112.316731 
L 319.976043 142.753866 
L 321.037005 140.980136 
L 322.097968 122.457454 
L 323.15893 144.586457 
L 324.219893 145.191923 
L 325.280856 148.611921 
L 326.341818 138.14363 
L 327.402781 140.949129 
L 328.463743 130.098858 
L 329.524706 157.674248 
L 330.585668 154.971777 
L 331.646631 153.922762 
L 332.707594 148.003471 
L 333.768556 157.960949 
L 334.829519 160.392636 
L 335.890481 161.445322 
L 336.951444 152.981774 
L 338.012406 159.435188 
L 339.073369 161.223265 
L 340.134332 155.443737 
L 341.195294 107.013129 
L 342.256257 144.252397 
L 343.317219 144.618976 
L 344.378182 145.556507 
L 345.439144 145.703455 
L 346.500107 143.474755 
L 347.56107 144.358497 
L 348.622032 117.335124 
L 349.682995 132.996836 
L 350.743957 118.590418 
L 351.80492 124.246428 
L 352.865882 145.903415 
L 353.926845 151.89671 
L 354.987807 159.816107 
L 356.04877 135.922796 
L 357.109733 146.454053 
L 358.170695 144.728458 
L 359.231658 143.501294 
L 360.29262 151.18184 
L 361.353583 157.535207 
L 362.414545 150.356526 
L 363.475508 153.460211 
L 364.536471 151.973004 
L 365.597433 165.283333 
L 366.658396 157.659264 
L 367.719358 157.93302 
L 368.780321 148.100145 
L 369.841283 164.015776 
L 370.902246 158.593692 
L 371.963209 138.880672 
L 373.024171 138.12466 
L 374.085134 152.897374 
L 375.146096 164.640535 
L 376.207059 142.43439 
L 377.268021 142.456017 
L 378.328984 121.070856 
L 379.389947 132.689828 
L 380.450909 149.944297 
L 381.511872 146.580371 
L 382.572834 139.393565 
L 383.633797 149.928072 
L 384.694759 164.870787 
L 385.755722 149.735017 
L 386.816684 126.032568 
L 387.877647 130.707037 
L 388.93861 127.733476 
L 389.999572 141.409439 
L 391.060535 134.021797 
L 392.121497 134.590461 
L 393.18246 140.044792 
L 394.243422 149.705595 
L 395.304385 131.908628 
L 396.365348 130.38139 
L 397.42631 137.654359 
L 398.487273 141.256798 
L 398.487273 141.256798 
" clip-path="url(#p106a7a078d)" style="fill: none; stroke: #0000ff; stroke-width: 1.5; stroke-linecap: square"/>
   </g>
   <g id="line2d_18">
    <path d="M 73.832727 295.488 
L 74.89369 157.417701 
L 75.954652 173.307077 
L 77.015615 172.306018 
L 78.076578 145.230549 
L 79.13754 149.751694 
L 80.198503 146.567711 
L 81.259465 154.086672 
L 82.320428 146.78663 
L 84.442353 144.89794 
L 85.503316 138.121067 
L 86.564278 140.144873 
L 87.625241 135.187322 
L 88.686203 145.6653 
L 89.747166 147.035376 
L 90.808128 143.559019 
L 91.869091 144.666712 
L 92.930053 154.079239 
L 93.991016 149.475877 
L 95.051979 148.308223 
L 96.112941 157.79077 
L 97.173904 149.429953 
L 98.234866 152.789307 
L 99.295829 153.223864 
L 100.356791 143.802695 
L 101.417754 154.912519 
L 102.478717 144.514978 
L 104.600642 145.026705 
L 105.661604 145.057577 
L 106.722567 144.049698 
L 107.783529 152.547721 
L 108.844492 141.047273 
L 109.905455 139.188695 
L 110.966417 143.040002 
L 112.02738 140.716881 
L 113.088342 140.992798 
L 114.149305 144.025476 
L 116.27123 138.541463 
L 117.332193 136.509313 
L 118.393155 138.277597 
L 119.454118 139.534693 
L 120.51508 138.093503 
L 121.576043 137.560463 
L 122.637005 139.79923 
L 123.697968 132.367299 
L 124.75893 131.985004 
L 125.819893 139.682841 
L 126.880856 136.389647 
L 127.941818 136.299425 
L 129.002781 138.57188 
L 130.063743 137.749977 
L 131.124706 142.252611 
L 132.185668 138.641931 
L 133.246631 138.1288 
L 134.307594 138.065437 
L 135.368556 141.258478 
L 136.429519 140.776505 
L 137.490481 137.683571 
L 138.551444 139.204305 
L 139.612406 138.342553 
L 140.673369 135.856117 
L 141.734332 138.178106 
L 142.795294 136.309555 
L 143.856257 138.969318 
L 144.917219 139.437001 
L 145.978182 139.615234 
L 147.039144 141.607469 
L 148.100107 143.203605 
L 149.16107 139.56415 
L 150.222032 150.41151 
L 151.282995 143.119001 
L 152.343957 144.965033 
L 154.465882 134.42645 
L 155.526845 131.183677 
L 156.587807 122.025724 
L 157.64877 119.149048 
L 158.709733 118.796493 
L 159.770695 116.3506 
L 160.831658 111.320223 
L 162.953583 120.590577 
L 164.014545 121.934297 
L 165.075508 128.639087 
L 166.136471 132.004908 
L 167.197433 127.055362 
L 168.258396 133.54084 
L 169.319358 133.289986 
L 170.380321 133.368054 
L 171.441283 126.572559 
L 172.502246 124.920536 
L 173.563209 125.462065 
L 174.624171 122.952233 
L 175.685134 115.825527 
L 176.746096 118.151371 
L 177.807059 119.594064 
L 178.868021 112.541087 
L 179.928984 115.632784 
L 180.989947 111.970104 
L 182.050909 111.562981 
L 183.111872 112.593552 
L 184.172834 116.312966 
L 185.233797 120.948757 
L 186.294759 124.97835 
L 187.355722 133.208224 
L 188.416684 137.849798 
L 189.477647 148.512516 
L 190.53861 149.257971 
L 191.599572 149.076241 
L 192.660535 145.064937 
L 193.721497 142.778145 
L 194.78246 138.468567 
L 195.843422 139.196193 
L 196.904385 130.818701 
L 197.965348 144.368359 
L 199.02631 143.659332 
L 200.087273 144.608696 
L 201.148235 143.317956 
L 202.209198 142.450789 
L 203.27016 154.10936 
L 204.331123 151.131678 
L 205.392086 152.448338 
L 206.453048 152.237049 
L 207.514011 151.58938 
L 208.574973 154.821757 
L 209.635936 146.324576 
L 210.696898 148.498421 
L 211.757861 145.368138 
L 212.818824 147.776563 
L 213.879786 142.99678 
L 214.940749 142.077078 
L 216.001711 140.670173 
L 218.123636 135.401198 
L 219.184599 134.584426 
L 220.245561 130.700618 
L 221.306524 133.480228 
L 222.367487 132.576219 
L 223.428449 133.68691 
L 224.489412 142.766561 
L 225.550374 144.530559 
L 226.611337 139.827832 
L 227.672299 138.173045 
L 228.733262 138.138831 
L 229.794225 136.437943 
L 230.855187 138.416197 
L 231.91615 128.531228 
L 232.977112 127.360521 
L 234.038075 127.938685 
L 235.099037 119.195468 
L 236.16 112.467654 
L 237.220963 109.500047 
L 238.281925 106.126175 
L 239.342888 105.041781 
L 241.464813 103.838218 
L 242.525775 104.737336 
L 243.586738 106.319086 
L 244.647701 106.817852 
L 245.708663 108.351045 
L 247.830588 110.686081 
L 248.891551 113.890676 
L 249.952513 115.046834 
L 251.013476 114.356834 
L 252.074439 111.565622 
L 253.135401 113.501498 
L 254.196364 117.854474 
L 257.379251 126.968079 
L 258.440214 130.145339 
L 259.501176 132.322864 
L 260.562139 137.835702 
L 261.623102 140.038052 
L 262.684064 143.723935 
L 263.745027 141.613574 
L 264.805989 147.490655 
L 266.927914 144.260065 
L 267.988877 155.201998 
L 269.04984 149.634316 
L 270.110802 146.640431 
L 272.232727 133.015515 
L 273.29369 128.211529 
L 274.354652 124.932446 
L 275.415615 124.502792 
L 276.476578 121.705302 
L 277.53754 122.413142 
L 278.598503 125.05619 
L 279.659465 125.852308 
L 280.720428 129.009501 
L 281.78139 131.376545 
L 282.842353 133.438804 
L 284.964278 138.888718 
L 286.025241 138.839562 
L 287.086203 137.458457 
L 288.147166 137.780727 
L 289.208128 136.549156 
L 290.269091 137.509474 
L 291.330053 137.0932 
L 292.391016 135.415745 
L 293.451979 135.271471 
L 294.512941 134.934114 
L 295.573904 136.894877 
L 296.634866 137.33534 
L 297.695829 139.62563 
L 298.756791 138.521746 
L 299.817754 140.619676 
L 300.878717 140.272283 
L 301.939679 143.277348 
L 303.000642 143.082725 
L 304.061604 139.66207 
L 305.122567 138.570556 
L 306.183529 138.835429 
L 307.244492 134.977049 
L 308.305455 129.697688 
L 309.366417 130.541859 
L 310.42738 128.780564 
L 311.488342 129.803544 
L 312.549305 130.014461 
L 313.610267 127.324763 
L 316.793155 113.093879 
L 317.854118 113.42389 
L 318.91508 116.491364 
L 322.097968 141.467395 
L 323.15893 142.68805 
L 324.219893 142.408979 
L 325.280856 147.134657 
L 326.341818 140.823058 
L 327.402781 141.253327 
L 328.463743 140.70561 
L 329.524706 140.910983 
L 330.585668 142.026821 
L 331.646631 143.487548 
L 332.707594 143.976023 
L 333.768556 145.78886 
L 334.829519 143.665771 
L 335.890481 142.286774 
L 336.951444 144.880213 
L 338.012406 142.708082 
L 339.073369 138.230382 
L 340.134332 142.117405 
L 341.195294 132.292326 
L 342.256257 139.079712 
L 343.317219 138.11921 
L 344.378182 133.851629 
L 345.439144 135.663766 
L 346.500107 134.056038 
L 347.56107 136.120439 
L 348.622032 142.258349 
L 349.682995 134.081939 
L 350.743957 135.269572 
L 351.80492 134.912715 
L 352.865882 132.638026 
L 353.926845 134.37072 
L 354.987807 134.405029 
L 356.04877 138.592662 
L 357.109733 136.889131 
L 358.170695 137.002787 
L 359.231658 135.703475 
L 360.29262 137.558479 
L 361.353583 137.583206 
L 362.414545 139.635873 
L 363.475508 140.264239 
L 365.597433 144.349388 
L 366.658396 144.805576 
L 367.719358 144.713105 
L 368.780321 132.784051 
L 369.841283 143.921649 
L 370.902246 127.206316 
L 371.963209 124.964066 
L 373.024171 149.632528 
L 374.085134 138.728347 
L 375.146096 141.924808 
L 376.207059 132.273568 
L 377.268021 137.130315 
L 378.328984 132.265785 
L 379.389947 135.275593 
L 380.450909 132.494071 
L 381.511872 132.643727 
L 382.572834 131.703018 
L 383.633797 132.558436 
L 384.694759 130.05642 
L 385.755722 130.60306 
L 386.816684 125.227943 
L 387.877647 129.628293 
L 389.999572 119.664331 
L 391.060535 120.681289 
L 392.121497 120.441315 
L 393.18246 119.545111 
L 394.243422 132.622698 
L 395.304385 128.289882 
L 396.365348 131.591426 
L 397.42631 129.053414 
L 398.487273 135.963144 
L 398.487273 135.963144 
" clip-path="url(#p106a7a078d)" style="fill: none; stroke-dasharray: 5.55,2.4; stroke-dashoffset: 0; stroke: #ff0000; stroke-width: 1.5"/>
   </g>
   <g id="patch_3">
    <path d="M 57.6 307.584 
L 57.6 41.472 
" style="fill: none; stroke: #000000; stroke-width: 0.8; stroke-linejoin: miter; stroke-linecap: square"/>
   </g>
   <g id="patch_4">
    <path d="M 414.72 307.584 
L 414.72 41.472 
" style="fill: none; stroke: #000000; stroke-width: 0.8; stroke-linejoin: miter; stroke-linecap: square"/>
   </g>
   <g id="patch_5">
    <path d="M 57.6 307.584 
L 414.72 307.584 
" style="fill: none; stroke: #000000; stroke-width: 0.8; stroke-linejoin: miter; stroke-linecap: square"/>
   </g>
   <g id="patch_6">
    <path d="M 57.6 41.472 
L 414.72 41.472 
" style="fill: none; stroke: #000000; stroke-width: 0.8; stroke-linejoin: miter; stroke-linecap: square"/>
   </g>
  </g>
 </g>
 <defs>
  <clipPath id="p106a7a078d">
   <rect x="57.6" y="41.472" width="357.12" height="266.112"/>
  </clipPath>
 </defs>
</svg>
